{"Protocol":0,"Id":"1a126f700d75d42cea6f55d978d56dcf","Path":"/data/tvshows/Cowboy Bebop/Cowboy.Bebop.S01E01.1080p-Hi10p.BluRay.FLAC5.1.x264.[BD1B305A].mkv","EncoderPath":null,"EncoderProtocol":null,"Type":0,"Container":"mkv","Size":2435797700,"Name":"Cowboy.Bebop.S01E01.1080p-Hi10p.BluRay.FLAC5.1.x264.[BD1B305A]","IsRemote":false,"ETag":"e6036f57aa6336f1a85a0cd4b4ad79dc","RunTimeTicks":14832420000,"ReadAtNativeFramerate":false,"IgnoreDts":false,"IgnoreIndex":false,"GenPtsInput":false,"SupportsTranscoding":true,"SupportsDirectStream":true,"SupportsDirectPlay":true,"IsInfiniteStream":false,"UseMostCompatibleTranscodingProfile":false,"RequiresOpening":false,"OpenToken":null,"RequiresClosing":false,"LiveStreamId":null,"BufferMs":null,"RequiresLooping":false,"SupportsProbing":true,"VideoType":0,"IsoType":null,"Video3DFormat":null,"MediaStreams":[{"Codec":"h264","CodecTag":null,"Language":"jpn","ColorRange":null,"ColorSpace":"bt709","ColorTransfer":"bt709","ColorPrimaries":"bt709","DvVersionMajor":null,"DvVersionMinor":null,"DvProfile":null,"DvLevel":null,"RpuPresentFlag":null,"ElPresentFlag":null,"BlPresentFlag":null,"DvBlSignalCompatibilityId":null,"Rotation":null,"Comment":null,"TimeBase":"1/1000","CodecTimeBase":null,"Title":"fussoir","Hdr10PlusPresentFlag":null,"VideoRange":1,"VideoRangeType":1,"VideoDoViTitle":null,"AudioSpatialFormat":0,"LocalizedUndefined":null,"LocalizedDefault":null,"LocalizedForced":null,"LocalizedExternal":null,"LocalizedHearingImpaired":null,"DisplayTitle":"fussoir - 1080p - H264 - SDR","NalLengthSize":"4","IsInterlaced":false,"IsAVC":true,"ChannelLayout":null,"BitRate":13137695,"BitDepth":10,"RefFrames":1,"PacketLength":null,"Channels":null,"SampleRate":null,"IsDefault":true,"IsForced":false,"IsHearingImpaired":false,"Height":1080,"Width":1448,"AverageFrameRate":23.976025,"RealFrameRate":23.976025,"ReferenceFrameRate":23.976025,"Profile":"High 10","Type":1,"AspectRatio":"4:3","Index":0,"Score":null,"IsExternal":false,"DeliveryMethod":null,"DeliveryUrl":null,"IsExternalUrl":null,"IsTextSubtitleStream":false,"SupportsExternalStream":false,"Path":null,"PixelFormat":"yuv420p10le","Level":50,"IsAnamorphic":false},{"Codec":"flac","CodecTag":null,"Language":"eng","ColorRange":null,"ColorSpace":null,"ColorTransfer":null,"ColorPrimaries":null,"DvVersionMajor":null,"DvVersionMinor":null,"DvProfile":null,"DvLevel":null,"RpuPresentFlag":null,"ElPresentFlag":null,"BlPresentFlag":null,"DvBlSignalCompatibilityId":null,"Rotation":null,"Comment":null,"TimeBase":"1/1000","CodecTimeBase":null,"Title":"FLAC 5.1 [philosophy]","Hdr10PlusPresentFlag":null,"VideoRange":0,"VideoRangeType":0,"VideoDoViTitle":null,"AudioSpatialFormat":0,"LocalizedUndefined":null,"LocalizedDefault":"Default","LocalizedForced":null,"LocalizedExternal":"External","LocalizedHearingImpaired":null,"DisplayTitle":"FLAC 5.1 [philosophy] - English - Default","NalLengthSize":null,"IsInterlaced":false,"IsAVC":false,"ChannelLayout":"5.1","BitRate":3166093,"BitDepth":24,"RefFrames":null,"PacketLength":null,"Channels":6,"SampleRate":48000,"IsDefault":true,"IsForced":false,"IsHearingImpaired":false,"Height":null,"Width":null,"AverageFrameRate":null,"RealFrameRate":null,"ReferenceFrameRate":null,"Profile":null,"Type":0,"AspectRatio":null,"Index":1,"Score":null,"IsExternal":false,"DeliveryMethod":null,"DeliveryUrl":null,"IsExternalUrl":null,"IsTextSubtitleStream":false,"SupportsExternalStream":false,"Path":null,"PixelFormat":null,"Level":0,"IsAnamorphic":null},{"Codec":"flac","CodecTag":null,"Language":"jpn","ColorRange":null,"ColorSpace":null,"ColorTransfer":null,"ColorPrimaries":null,"DvVersionMajor":null,"DvVersionMinor":null,"DvProfile":null,"DvLevel":null,"RpuPresentFlag":null,"ElPresentFlag":null,"BlPresentFlag":null,"DvBlSignalCompatibilityId":null,"Rotation":null,"Comment":null,"TimeBase":"1/1000","CodecTimeBase":null,"Title":"FLAC 5.1 [philosophy]","Hdr10PlusPresentFlag":null,"VideoRange":0,"VideoRangeType":0,"VideoDoViTitle":null,"AudioSpatialFormat":0,"LocalizedUndefined":null,"LocalizedDefault":"Default","LocalizedForced":null,"LocalizedExternal":"External","LocalizedHearingImpaired":null,"DisplayTitle":"FLAC 5.1 [philosophy] - Japanese","NalLengthSize":null,"IsInterlaced":false,"IsAVC":false,"ChannelLayout":"5.1","BitRate":3241591,"BitDepth":24,"RefFrames":null,"PacketLength":null,"Channels":6,"SampleRate":48000,"IsDefault":false,"IsForced":false,"IsHearingImpaired":false,"Height":null,"Width":null,"AverageFrameRate":null,"RealFrameRate":null,"ReferenceFrameRate":null,"Profile":null,"Type":0,"AspectRatio":null,"Index":2,"Score":null,"IsExternal":false,"DeliveryMethod":null,"DeliveryUrl":null,"IsExternalUrl":null,"IsTextSubtitleStream":false,"SupportsExternalStream":false,"Path":null,"PixelFormat":null,"Level":0,"IsAnamorphic":null},{"Codec":"aac","CodecTag":null,"Language":"jpn","ColorRange":null,"ColorSpace":null,"ColorTransfer":null,"ColorPrimaries":null,"DvVersionMajor":null,"DvVersionMinor":null,"DvProfile":null,"DvLevel":null,"RpuPresentFlag":null,"ElPresentFlag":null,"BlPresentFlag":null,"DvBlSignalCompatibilityId":null,"Rotation":null,"Comment":null,"TimeBase":"1/1000","CodecTimeBase":null,"Title":"Commentary - AAC 2.0 [OZC]","Hdr10PlusPresentFlag":null,"VideoRange":0,"VideoRangeType":0,"VideoDoViTitle":null,"AudioSpatialFormat":0,"LocalizedUndefined":null,"LocalizedDefault":"Default","LocalizedForced":null,"LocalizedExternal":"External","LocalizedHearingImpaired":null,"DisplayTitle":"Commentary - AAC 2.0 [OZC] - Japanese - Stereo","NalLengthSize":null,"IsInterlaced":false,"IsAVC":false,"ChannelLayout":"stereo","BitRate":140896,"BitDepth":null,"RefFrames":null,"PacketLength":null,"Channels":2,"SampleRate":48000,"IsDefault":false,"IsForced":false,"IsHearingImpaired":false,"Height":null,"Width":null,"AverageFrameRate":null,"RealFrameRate":null,"ReferenceFrameRate":null,"Profile":"LC","Type":0,"AspectRatio":null,"Index":3,"Score":null,"IsExternal":false,"DeliveryMethod":null,"DeliveryUrl":null,"IsExternalUrl":null,"IsTextSubtitleStream":false,"SupportsExternalStream":false,"Path":null,"PixelFormat":null,"Level":0,"IsAnamorphic":null},{"Codec":"ass","CodecTag":null,"Language":"eng","ColorRange":null,"ColorSpace":null,"ColorTransfer":null,"ColorPrimaries":null,"DvVersionMajor":null,"DvVersionMinor":null,"DvProfile":null,"DvLevel":null,"RpuPresentFlag":null,"ElPresentFlag":null,"BlPresentFlag":null,"DvBlSignalCompatibilityId":null,"Rotation":null,"Comment":null,"TimeBase":"1/1000","CodecTimeBase":null,"Title":"Signs [OZC]","Hdr10PlusPresentFlag":null,"VideoRange":0,"VideoRangeType":0,"VideoDoViTitle":null,"AudioSpatialFormat":0,"LocalizedUndefined":"Undefined","LocalizedDefault":"Default","LocalizedForced":"Forced","LocalizedExternal":"External","LocalizedHearingImpaired":"Hearing Impaired","DisplayTitle":"Signs [OZC] - English - Default - ASS","NalLengthSize":null,"IsInterlaced":false,"IsAVC":false,"ChannelLayout":null,"BitRate":null,"BitDepth":null,"RefFrames":null,"PacketLength":null,"Channels":null,"SampleRate":null,"IsDefault":true,"IsForced":false,"IsHearingImpaired":false,"Height":0,"Width":0,"AverageFrameRate":null,"RealFrameRate":null,"ReferenceFrameRate":null,"Profile":null,"Type":2,"AspectRatio":null,"Index":4,"Score":null,"IsExternal":false,"DeliveryMethod":null,"DeliveryUrl":null,"IsExternalUrl":null,"IsTextSubtitleStream":true,"SupportsExternalStream":true,"Path":null,"PixelFormat":null,"Level":0,"IsAnamorphic":null},{"Codec":"ass","CodecTag":null,"Language":"jpn","ColorRange":null,"ColorSpace":null,"ColorTransfer":null,"ColorPrimaries":null,"DvVersionMajor":null,"DvVersionMinor":null,"DvProfile":null,"DvLevel":null,"RpuPresentFlag":null,"ElPresentFlag":null,"BlPresentFlag":null,"DvBlSignalCompatibilityId":null,"Rotation":null,"Comment":null,"TimeBase":"1/1000","CodecTimeBase":null,"Title":"Subtitles [OZC]","Hdr10PlusPresentFlag":null,"VideoRange":0,"VideoRangeType":0,"VideoDoViTitle":null,"AudioSpatialFormat":0,"LocalizedUndefined":"Undefined","LocalizedDefault":"Default","LocalizedForced":"Forced","LocalizedExternal":"External","LocalizedHearingImpaired":"Hearing Impaired","DisplayTitle":"Subtitles [OZC] - Japanese - ASS","NalLengthSize":null,"IsInterlaced":false,"IsAVC":false,"ChannelLayout":null,"BitRate":null,"BitDepth":null,"RefFrames":null,"PacketLength":null,"Channels":null,"SampleRate":null,"IsDefault":false,"IsForced":false,"IsHearingImpaired":false,"Height":0,"Width":0,"AverageFrameRate":null,"RealFrameRate":null,"ReferenceFrameRate":null,"Profile":null,"Type":2,"AspectRatio":null,"Index":5,"Score":null,"IsExternal":false,"DeliveryMethod":null,"DeliveryUrl":null,"IsExternalUrl":null,"IsTextSubtitleStream":true,"SupportsExternalStream":true,"Path":null,"PixelFormat":null,"Level":0,"IsAnamorphic":null},{"Codec":"ass","CodecTag":null,"Language":"jpn","ColorRange":null,"ColorSpace":null,"ColorTransfer":null,"ColorPrimaries":null,"DvVersionMajor":null,"DvVersionMinor":null,"DvProfile":null,"DvLevel":null,"RpuPresentFlag":null,"ElPresentFlag":null,"BlPresentFlag":null,"DvBlSignalCompatibilityId":null,"Rotation":null,"Comment":null,"TimeBase":"1/1000","CodecTimeBase":null,"Title":"Commentary Subtitles [OZC]","Hdr10PlusPresentFlag":null,"VideoRange":0,"VideoRangeType":0,"VideoDoViTitle":null,"AudioSpatialFormat":0,"LocalizedUndefined":"Undefined","LocalizedDefault":"Default","LocalizedForced":"Forced","LocalizedExternal":"External","LocalizedHearingImpaired":"Hearing Impaired","DisplayTitle":"Commentary Subtitles [OZC] - Japanese - ASS","NalLengthSize":null,"IsInterlaced":false,"IsAVC":false,"ChannelLayout":null,"BitRate":null,"BitDepth":null,"RefFrames":null,"PacketLength":null,"Channels":null,"SampleRate":null,"IsDefault":false,"IsForced":false,"IsHearingImpaired":false,"Height":0,"Width":0,"AverageFrameRate":null,"RealFrameRate":null,"ReferenceFrameRate":null,"Profile":null,"Type":2,"AspectRatio":null,"Index":6,"Score":null,"IsExternal":false,"DeliveryMethod":null,"DeliveryUrl":null,"IsExternalUrl":null,"IsTextSubtitleStream":true,"SupportsExternalStream":true,"Path":null,"PixelFormat":null,"Level":0,"IsAnamorphic":null}],"MediaAttachments":[{"Codec":null,"CodecTag":"[0][0][0][0]","Comment":null,"Index":7,"FileName":"encoding-source-code.7z","MimeType":"application/x-7z-compressed","DeliveryUrl":null},{"Codec":"ttf","CodecTag":"[0][0][0][0]","Comment":null,"Index":8,"FileName":"HelveticaNeueLTCom-MdSemiEx.ttf","MimeType":"application/x-truetype-font","DeliveryUrl":null},{"Codec":"ttf","CodecTag":"[0][0][0][0]","Comment":null,"Index":9,"FileName":"HelveticaNeueLTCom-MdSemiExO.ttf","MimeType":"application/x-truetype-font","DeliveryUrl":null},{"Codec":"ttf","CodecTag":"[0][0][0][0]","Comment":null,"Index":10,"FileName":"TEMPSITC.TTF","MimeType":"application/x-truetype-font","DeliveryUrl":null},{"Codec":"ttf","CodecTag":"[0][0][0][0]","Comment":null,"Index":11,"FileName":"GaramondPremrPro-Smbd.otf","MimeType":"application/x-truetype-font","DeliveryUrl":null},{"Codec":"ttf","CodecTag":"[0][0][0][0]","Comment":null,"Index":12,"FileName":"GaramondPremrPro.otf","MimeType":"application/x-truetype-font","DeliveryUrl":null},{"Codec":"ttf","CodecTag":"[0][0][0][0]","Comment":null,"Index":13,"FileName":"rough_typewriter.otf","MimeType":"application/x-truetype-font","DeliveryUrl":null},{"Codec":"ttf","CodecTag":"[0][0][0][0]","Comment":null,"Index":14,"FileName":"calibri.ttf","MimeType":"application/x-truetype-font","DeliveryUrl":null},{"Codec":"ttf","CodecTag":"[0][0][0][0]","Comment":null,"Index":15,"FileName":"calibrii.ttf","MimeType":"application/x-truetype-font","DeliveryUrl":null},{"Codec":"ttf","CodecTag":"[0][0][0][0]","Comment":null,"Index":16,"FileName":"TEMPSITC.TTF","MimeType":"application/x-truetype-font","DeliveryUrl":null}],"Formats":[],"Bitrate":19686275,"FallbackMaxStreamingBitrate":null,"Timestamp":null,"RequiredHttpHeaders":{},"TranscodingUrl":null,"TranscodingSubProtocol":0,"TranscodingContainer":null,"AnalyzeDurationMs":null,"DefaultAudioStreamIndex":null,"DefaultSubtitleStreamIndex":null,"HasSegments":false}

/usr/lib/jellyfin-ffmpeg/ffmpeg -analyzeduration 200M -probesize 1G  -i file:"/data/tvshows/Cowboy Bebop/Cowboy.Bebop.S01E01.1080p-Hi10p.BluRay.FLAC5.1.x264.[BD1B305A].mkv" -map_metadata -1 -map_chapters -1 -threads 0 -map 0:0 -map 0:1 -map -0:s -codec:v:0 libx264 -preset veryfast -crf 23 -maxrate 13137695 -bufsize 26275390 -profile:v:0 high -level 50 -x264opts:0 subme=0:me_range=16:rc_lookahead=10:me=hex:open_gop=0 -force_key_frames:0 "expr:gte(t,n_forced*3)" -sc_threshold:v:0 0 -vf "setparams=color_primaries=bt709:color_trc=bt709:colorspace=bt709,scale=trunc(min(max(iw\,ih*a)\,min(1448\,1080*a))/2)*2:trunc(min(max(iw/a\,ih)\,min(1448/a\,1080))/2)*2,format=yuv420p" -codec:a:0 libfdk_aac -ac 6 -ab 640000 -copyts -avoid_negative_ts disabled -max_muxing_queue_size 2048 -f hls -max_delay 5000000 -hls_time 3 -hls_segment_type mpegts -start_number 0 -hls_segment_filename "/config/cache/transcodes/d3629a06c2906d9c28e4c0610988f423%d.ts" -hls_playlist_type vod -hls_list_size 0 -y "/config/cache/transcodes/d3629a06c2906d9c28e4c0610988f423.m3u8"


ffmpeg version 7.1.3-Jellyfin Copyright (c) 2000-2025 the FFmpeg developers
  built with gcc 13 (Ubuntu 13.3.0-6ubuntu2~24.04.1)
  configuration: --prefix=/usr/lib/jellyfin-ffmpeg --target-os=linux --extra-version=Jellyfin --disable-doc --disable-ffplay --disable-static --disable-libxcb --disable-sdl2 --disable-xlib --enable-lto=auto --enable-gpl --enable-version3 --enable-shared --enable-gmp --enable-gnutls --enable-chromaprint --enable-opencl --enable-libdrm --enable-libxml2 --enable-libass --enable-libfreetype --enable-libfribidi --enable-libfontconfig --enable-libharfbuzz --enable-libbluray --enable-libmp3lame --enable-libopus --enable-libtheora --enable-libvorbis --enable-libopenmpt --enable-libdav1d --enable-libsvtav1 --enable-libwebp --enable-libvpx --enable-libx264 --enable-libx265 --enable-libzvbi --enable-libzimg --enable-libfdk-aac --arch=amd64 --enable-libshaderc --enable-libplacebo --enable-vulkan --enable-vaapi --enable-amf --enable-libvpl --enable-ffnvcodec --enable-cuda --enable-cuda-llvm --enable-cuvid --enable-nvdec --enable-nvenc
  libavutil      59. 39.100 / 59. 39.100
  libavcodec     61. 19.101 / 61. 19.101
  libavformat    61.  7.100 / 61.  7.100
  libavdevice    61.  3.100 / 61.  3.100
  libavfilter    10.  4.100 / 10.  4.100
  libswscale      8.  3.100 /  8.  3.100
  libswresample   5.  3.100 /  5.  3.100
  libpostproc    58.  3.100 / 58.  3.100
[matroska,webm @ 0x55710f30cf00] Could not find codec parameters for stream 7 (Attachment: none): unknown codec
Consider increasing the value for the 'analyzeduration' (200000000) and 'probesize' (1000000000) options
Input #0, matroska,webm, from 'file:/data/tvshows/Cowboy Bebop/Cowboy.Bebop.S01E01.1080p-Hi10p.BluRay.FLAC5.1.x264.[BD1B305A].mkv':
  Metadata:
    title           : Cowboy Bebop — Épisode 01
    encoder         : libebml v1.3.4 + libmatroska v1.4.5
    creation_time   : 2016-09-12T03:15:10.000000Z
  Duration: 00:24:43.24, start: 0.000000, bitrate: 13137 kb/s
  Chapters:
    Chapter #0:0: start 0.000000, end 48.911000
      Metadata:
        title           : Prologue
    Chapter #0:1: start 48.911000, end 139.178000
      Metadata:
        title           : Opening Credits
    Chapter #0:2: start 139.178000, end 744.640000
      Metadata:
        title           : Part 1
    Chapter #0:3: start 744.640000, end 1356.728000
      Metadata:
        title           : Part 2
    Chapter #0:4: start 1356.728000, end 1451.895000
      Metadata:
        title           : Ending Credits
    Chapter #0:5: start 1451.895000, end 1483.242000
      Metadata:
        title           : Next Episode Preview
  Stream #0:0(jpn): Video: h264 (High 10), yuv420p10le(tv, bt709, progressive), 1448x1080 [SAR 1:1 DAR 181:135], 23.98 fps, 23.98 tbr, 1k tbn (default)
      Metadata:
        title           : fussoir
        BPS             : 6570773
        BPS-eng         : 6570773
        DURATION        : 00:24:43.107000000
        DURATION-eng    : 00:24:43.107000000
        NUMBER_OF_FRAMES: 35559
        NUMBER_OF_FRAMES-eng: 35559
        NUMBER_OF_BYTES : 1218145000
        NUMBER_OF_BYTES-eng: 1218145000
        _STATISTICS_WRITING_APP: mkvmerge v9.4.0 ('Knurl') 64bit
        _STATISTICS_WRITING_APP-eng: mkvmerge v9.4.0 ('Knurl') 64bit
        _STATISTICS_WRITING_DATE_UTC: 2016-09-12 03:15:10
        _STATISTICS_WRITING_DATE_UTC-eng: 2016-09-12 03:15:10
        _STATISTICS_TAGS: BPS DURATION NUMBER_OF_FRAMES NUMBER_OF_BYTES
        _STATISTICS_TAGS-eng: BPS DURATION NUMBER_OF_FRAMES NUMBER_OF_BYTES
  Stream #0:1(eng): Audio: flac, 48000 Hz, 5.1(side), s32 (24 bit) (default)
      Metadata:
        title           : FLAC 5.1 [philosophy]
        BPS             : 3166093
        BPS-eng         : 3166093
        DURATION        : 00:24:40.118000000
        DURATION-eng    : 00:24:40.118000000
        NUMBER_OF_FRAMES: 17346
        NUMBER_OF_FRAMES-eng: 17346
        NUMBER_OF_BYTES : 585774051
        NUMBER_OF_BYTES-eng: 585774051
        _STATISTICS_WRITING_APP: mkvmerge v9.4.0 ('Knurl') 64bit
        _STATISTICS_WRITING_APP-eng: mkvmerge v9.4.0 ('Knurl') 64bit
        _STATISTICS_WRITING_DATE_UTC: 2016-09-12 03:15:10
        _STATISTICS_WRITING_DATE_UTC-eng: 2016-09-12 03:15:10
        _STATISTICS_TAGS: BPS DURATION NUMBER_OF_FRAMES NUMBER_OF_BYTES
        _STATISTICS_TAGS-eng: BPS DURATION NUMBER_OF_FRAMES NUMBER_OF_BYTES
  Stream #0:2(jpn): Audio: flac, 48000 Hz, 5.1(side), s32 (24 bit)
      Metadata:
        title           : FLAC 5.1 [philosophy]
        BPS             : 3241591
        BPS-eng         : 3241591
        DURATION        : 00:24:43.157000000
        DURATION-eng    : 00:24:43.157000000
        NUMBER_OF_FRAMES: 17381
        NUMBER_OF_FRAMES-eng: 17381
        NUMBER_OF_BYTES : 600973550
        NUMBER_OF_BYTES-eng: 600973550
        _STATISTICS_WRITING_APP: mkvmerge v9.4.0 ('Knurl') 64bit
        _STATISTICS_WRITING_APP-eng: mkvmerge v9.4.0 ('Knurl') 64bit
        _STATISTICS_WRITING_DATE_UTC: 2016-09-12 03:15:10
        _STATISTICS_WRITING_DATE_UTC-eng: 2016-09-12 03:15:10
        _STATISTICS_TAGS: BPS DURATION NUMBER_OF_FRAMES NUMBER_OF_BYTES
        _STATISTICS_TAGS-eng: BPS DURATION NUMBER_OF_FRAMES NUMBER_OF_BYTES
  Stream #0:3(jpn): Audio: aac (LC), 48000 Hz, stereo, fltp
      Metadata:
        title           : Commentary - AAC 2.0 [OZC]
        BPS             : 140896
        BPS-eng         : 140896
        DURATION        : 00:24:43.242000000
        DURATION-eng    : 00:24:43.242000000
        NUMBER_OF_FRAMES: 69527
        NUMBER_OF_FRAMES-eng: 69527
        NUMBER_OF_BYTES : 26122917
        NUMBER_OF_BYTES-eng: 26122917
        _STATISTICS_WRITING_APP: mkvmerge v9.4.0 ('Knurl') 64bit
        _STATISTICS_WRITING_APP-eng: mkvmerge v9.4.0 ('Knurl') 64bit
        _STATISTICS_WRITING_DATE_UTC: 2016-09-12 03:15:10
        _STATISTICS_WRITING_DATE_UTC-eng: 2016-09-12 03:15:10
        _STATISTICS_TAGS: BPS DURATION NUMBER_OF_FRAMES NUMBER_OF_BYTES
        _STATISTICS_TAGS-eng: BPS DURATION NUMBER_OF_FRAMES NUMBER_OF_BYTES
  Stream #0:4(eng): Subtitle: ass (ssa) (default)
      Metadata:
        title           : Signs [OZC]
        BPS             : 154
        BPS-eng         : 154
        DURATION        : 00:01:07.930000000
        DURATION-eng    : 00:01:07.930000000
        NUMBER_OF_FRAMES: 10
        NUMBER_OF_FRAMES-eng: 10
        NUMBER_OF_BYTES : 1313
        NUMBER_OF_BYTES-eng: 1313
        _STATISTICS_WRITING_APP: mkvmerge v9.4.0 ('Knurl') 64bit
        _STATISTICS_WRITING_APP-eng: mkvmerge v9.4.0 ('Knurl') 64bit
        _STATISTICS_WRITING_DATE_UTC: 2016-09-12 03:15:10
        _STATISTICS_WRITING_DATE_UTC-eng: 2016-09-12 03:15:10
        _STATISTICS_TAGS: BPS DURATION NUMBER_OF_FRAMES NUMBER_OF_BYTES
        _STATISTICS_TAGS-eng: BPS DURATION NUMBER_OF_FRAMES NUMBER_OF_BYTES
  Stream #0:5(jpn): Subtitle: ass (ssa)
      Metadata:
        title           : Subtitles [OZC]
        BPS             : 79
        BPS-eng         : 79
        DURATION        : 00:21:33.350000000
        DURATION-eng    : 00:21:33.350000000
        NUMBER_OF_FRAMES: 224
        NUMBER_OF_FRAMES-eng: 224
        NUMBER_OF_BYTES : 12785
        NUMBER_OF_BYTES-eng: 12785
        _STATISTICS_WRITING_APP: mkvmerge v9.4.0 ('Knurl') 64bit
        _STATISTICS_WRITING_APP-eng: mkvmerge v9.4.0 ('Knurl') 64bit
        _STATISTICS_WRITING_DATE_UTC: 2016-09-12 03:15:10
        _STATISTICS_WRITING_DATE_UTC-eng: 2016-09-12 03:15:10
        _STATISTICS_TAGS: BPS DURATION NUMBER_OF_FRAMES NUMBER_OF_BYTES
        _STATISTICS_TAGS-eng: BPS DURATION NUMBER_OF_FRAMES NUMBER_OF_BYTES
  Stream #0:6(jpn): Subtitle: ass (ssa)
      Metadata:
        title           : Commentary Subtitles [OZC]
        BPS             : 183
        BPS-eng         : 183
        DURATION        : 00:21:51.590000000
        DURATION-eng    : 00:21:51.590000000
        NUMBER_OF_FRAMES: 452
        NUMBER_OF_FRAMES-eng: 452
        NUMBER_OF_BYTES : 30019
        NUMBER_OF_BYTES-eng: 30019
        _STATISTICS_WRITING_APP: mkvmerge v9.4.0 ('Knurl') 64bit
        _STATISTICS_WRITING_APP-eng: mkvmerge v9.4.0 ('Knurl') 64bit
        _STATISTICS_WRITING_DATE_UTC: 2016-09-12 03:15:10
        _STATISTICS_WRITING_DATE_UTC-eng: 2016-09-12 03:15:10
        _STATISTICS_TAGS: BPS DURATION NUMBER_OF_FRAMES NUMBER_OF_BYTES
        _STATISTICS_TAGS-eng: BPS DURATION NUMBER_OF_FRAMES NUMBER_OF_BYTES
  Stream #0:7: Attachment: none
      Metadata:
        filename        : encoding-source-code.7z
        mimetype        : application/x-7z-compressed
        title           : Encoding source code
  Stream #0:8: Attachment: ttf
      Metadata:
        filename        : HelveticaNeueLTCom-MdSemiEx.ttf
        mimetype        : application/x-truetype-font
        title           : Font
  Stream #0:9: Attachment: ttf
      Metadata:
        filename        : HelveticaNeueLTCom-MdSemiExO.ttf
        mimetype        : application/x-truetype-font
        title           : Font
  Stream #0:10: Attachment: ttf
      Metadata:
        filename        : TEMPSITC.TTF
        mimetype        : application/x-truetype-font
        title           : Font
  Stream #0:11: Attachment: ttf
      Metadata:
        filename        : GaramondPremrPro-Smbd.otf
        mimetype        : application/x-truetype-font
        title           : Font
  Stream #0:12: Attachment: ttf
      Metadata:
        filename        : GaramondPremrPro.otf
        mimetype        : application/x-truetype-font
        title           : Font
  Stream #0:13: Attachment: ttf
      Metadata:
        filename        : rough_typewriter.otf
        mimetype        : application/x-truetype-font
        title           : Font
  Stream #0:14: Attachment: ttf
      Metadata:
        filename        : calibri.ttf
        mimetype        : application/x-truetype-font
  Stream #0:15: Attachment: ttf
      Metadata:
        filename        : calibrii.ttf
        mimetype        : application/x-truetype-font
  Stream #0:16: Attachment: ttf
      Metadata:
        filename        : TEMPSITC.TTF
        mimetype        : application/x-truetype-font
Stream mapping:
  Stream #0:0 -> #0:0 (h264 (native) -> h264 (libx264))
  Stream #0:1 -> #0:1 (flac (native) -> aac (libfdk_aac))
Press [q] to stop, [?] for help
[libx264 @ 0x55710f37a100] using SAR=1/1
[libx264 @ 0x55710f37a100] using cpu capabilities: MMX2 SSE2Fast SSSE3 SSE4.2 AVX FMA3 BMI2 AVX2 AVX512
[libx264 @ 0x55710f37a100] profile High, level 5.0, 4:2:0, 8-bit
[libx264 @ 0x55710f37a100] 264 - core 164 r3108 31e19f9 - H.264/MPEG-4 AVC codec - Copyleft 2003-2023 - http://www.videolan.org/x264.html - options: cabac=1 ref=1 deblock=1:0:0 analyse=0x3:0x113 me=hex subme=0 psy=1 psy_rd=1.00:0.00 mixed_ref=0 me_range=16 chroma_me=1 trellis=0 8x8dct=1 cqm=0 deadzone=21,11 fast_pskip=1 chroma_qp_offset=0 threads=24 lookahead_threads=4 sliced_threads=0 nr=0 decimate=1 interlaced=0 bluray_compat=0 constrained_intra=0 bframes=3 b_pyramid=2 b_adapt=1 b_bias=0 direct=1 weightb=1 open_gop=0 weightp=1 keyint=250 keyint_min=23 scenecut=0 intra_refresh=0 rc_lookahead=10 rc=crf mbtree=1 crf=23.0 qcomp=0.60 qpmin=0 qpmax=69 qpstep=4 vbv_maxrate=13137 vbv_bufsize=26275 crf_max=0.0 nal_hrd=none filler=0 ip_ratio=1.40 aq=1:1.00
Output #0, hls, to '/config/cache/transcodes/d3629a06c2906d9c28e4c0610988f423.m3u8':
  Metadata:
    encoder         : Lavf61.7.100
  Stream #0:0: Video: h264, yuv420p(tv, bt709, progressive), 1448x1080 [SAR 1:1 DAR 181:135], q=2-31, 23.98 fps, 90k tbn (default)
      Metadata:
        encoder         : Lavc61.19.101 libx264
      Side data:
        cpb: bitrate max/min/avg: 13137000/0/0 buffer size: 26275000 vbv_delay: N/A
  Stream #0:1: Audio: aac, 48000 Hz, 5.1, s16, 640 kb/s (default)
      Metadata:
        encoder         : Lavc61.19.101 libfdk_aac
      Side data:
        cpb: bitrate max/min/avg: 640000/640000/640000 buffer size: 0 vbv_delay: N/A
[hls @ 0x557116013800] Opening '/config/cache/transcodes/d3629a06c2906d9c28e4c0610988f4230.ts' for writing
frame=   88 fps=0.0 q=28.0 size=N/A time=00:00:00.00 bitrate=N/A speed=   0x    
[hls @ 0x557116013800] Opening '/config/cache/transcodes/d3629a06c2906d9c28e4c0610988f4231.ts' for writing
[hls @ 0x557116013800] Opening '/config/cache/transcodes/d3629a06c2906d9c28e4c0610988f4232.ts' for writing
frame=  265 fps=264 q=28.0 size=N/A time=00:00:07.38 bitrate=N/A speed=7.37x    
[hls @ 0x557116013800] Opening '/config/cache/transcodes/d3629a06c2906d9c28e4c0610988f4233.ts' for writing
[hls @ 0x557116013800] Opening '/config/cache/transcodes/d3629a06c2906d9c28e4c0610988f4234.ts' for writing
[hls @ 0x557116013800] Opening '/config/cache/transcodes/d3629a06c2906d9c28e4c0610988f4235.ts' for writing
frame=  439 fps=292 q=28.0 size=N/A time=00:00:14.63 bitrate=N/A speed=9.73x    
[hls @ 0x557116013800] Opening '/config/cache/transcodes/d3629a06c2906d9c28e4c0610988f4236.ts' for writing
[hls @ 0x557116013800] Opening '/config/cache/transcodes/d3629a06c2906d9c28e4c0610988f4237.ts' for writing
frame=  593 fps=296 q=28.0 size=N/A time=00:00:21.06 bitrate=N/A speed=10.5x    
[hls @ 0x557116013800] Opening '/config/cache/transcodes/d3629a06c2906d9c28e4c0610988f4238.ts' for writing
[hls @ 0x557116013800] Opening '/config/cache/transcodes/d3629a06c2906d9c28e4c0610988f4239.ts' for writing
frame=  749 fps=299 q=28.0 size=N/A time=00:00:27.56 bitrate=N/A speed=  11x    
[hls @ 0x557116013800] Opening '/config/cache/transcodes/d3629a06c2906d9c28e4c0610988f42310.ts' for writing
[hls @ 0x557116013800] Opening '/config/cache/transcodes/d3629a06c2906d9c28e4c0610988f42311.ts' for writing
frame=  897 fps=298 q=28.0 size=N/A time=00:00:33.74 bitrate=N/A speed=11.2x    
[hls @ 0x557116013800] Opening '/config/cache/transcodes/d3629a06c2906d9c28e4c0610988f42312.ts' for writing
[hls @ 0x557116013800] Opening '/config/cache/transcodes/d3629a06c2906d9c28e4c0610988f42313.ts' for writing
frame= 1044 fps=297 q=28.0 size=N/A time=00:00:39.91 bitrate=N/A speed=11.4x    
[hls @ 0x557116013800] Opening '/config/cache/transcodes/d3629a06c2906d9c28e4c0610988f42314.ts' for writing
[hls @ 0x557116013800] Opening '/config/cache/transcodes/d3629a06c2906d9c28e4c0610988f42315.ts' for writing
[hls @ 0x557116013800] Opening '/config/cache/transcodes/d3629a06c2906d9c28e4c0610988f42316.ts' for writing
frame= 1230 fps=307 q=28.0 size=N/A time=00:00:47.71 bitrate=N/A speed=11.9x    
[hls @ 0x557116013800] Opening '/config/cache/transcodes/d3629a06c2906d9c28e4c0610988f42317.ts' for writing
[hls @ 0x557116013800] Opening '/config/cache/transcodes/d3629a06c2906d9c28e4c0610988f42318.ts' for writing
frame= 1436 fps=318 q=28.0 size=N/A time=00:00:56.22 bitrate=N/A speed=12.5x    
[hls @ 0x557116013800] Opening '/config/cache/transcodes/d3629a06c2906d9c28e4c0610988f42319.ts' for writing
[hls @ 0x557116013800] Opening '/config/cache/transcodes/d3629a06c2906d9c28e4c0610988f42320.ts' for writing
[hls @ 0x557116013800] Opening '/config/cache/transcodes/d3629a06c2906d9c28e4c0610988f42321.ts' for writing
frame= 1611 fps=321 q=28.0 size=N/A time=00:01:03.52 bitrate=N/A speed=12.7x    
[hls @ 0x557116013800] Opening '/config/cache/transcodes/d3629a06c2906d9c28e4c0610988f42322.ts' for writing
[hls @ 0x557116013800] Opening '/config/cache/transcodes/d3629a06c2906d9c28e4c0610988f42323.ts' for writing
frame= 1793 fps=325 q=28.0 size=N/A time=00:01:11.11 bitrate=N/A speed=12.9x    
[hls @ 0x557116013800] Opening '/config/cache/transcodes/d3629a06c2906d9c28e4c0610988f42324.ts' for writing
[hls @ 0x557116013800] Opening '/config/cache/transcodes/d3629a06c2906d9c28e4c0610988f42325.ts' for writing
[hls @ 0x557116013800] Opening '/config/cache/transcodes/d3629a06c2906d9c28e4c0610988f42326.ts' for writing
frame= 1988 fps=330 q=28.0 size=N/A time=00:01:19.24 bitrate=N/A speed=13.2x    
[hls @ 0x557116013800] Opening '/config/cache/transcodes/d3629a06c2906d9c28e4c0610988f42327.ts' for writing
[hls @ 0x557116013800] Opening '/config/cache/transcodes/d3629a06c2906d9c28e4c0610988f42328.ts' for writing
[hls @ 0x557116013800] Opening '/config/cache/transcodes/d3629a06c2906d9c28e4c0610988f42329.ts' for writing
frame= 2194 fps=337 q=28.0 size=N/A time=00:01:27.83 bitrate=N/A speed=13.5x    
[hls @ 0x557116013800] Opening '/config/cache/transcodes/d3629a06c2906d9c28e4c0610988f42330.ts' for writing
[hls @ 0x557116013800] Opening '/config/cache/transcodes/d3629a06c2906d9c28e4c0610988f42331.ts' for writing
[hls @ 0x557116013800] Opening '/config/cache/transcodes/d3629a06c2906d9c28e4c0610988f42332.ts' for writing
frame= 2378 fps=339 q=28.0 size=N/A time=00:01:35.51 bitrate=N/A speed=13.6x    
[hls @ 0x557116013800] Opening '/config/cache/transcodes/d3629a06c2906d9c28e4c0610988f42333.ts' for writing
[hls @ 0x557116013800] Opening '/config/cache/transcodes/d3629a06c2906d9c28e4c0610988f42334.ts' for writing
frame= 2560 fps=340 q=28.0 size=N/A time=00:01:43.10 bitrate=N/A speed=13.7x    
[hls @ 0x557116013800] Opening '/config/cache/transcodes/d3629a06c2906d9c28e4c0610988f42335.ts' for writing
[hls @ 0x557116013800] Opening '/config/cache/transcodes/d3629a06c2906d9c28e4c0610988f42336.ts' for writing
[hls @ 0x557116013800] Opening '/config/cache/transcodes/d3629a06c2906d9c28e4c0610988f42337.ts' for writing
frame= 2759 fps=344 q=28.0 size=N/A time=00:01:51.40 bitrate=N/A speed=13.9x    
[hls @ 0x557116013800] Opening '/config/cache/transcodes/d3629a06c2906d9c28e4c0610988f42338.ts' for writing
[hls @ 0x557116013800] Opening '/config/cache/transcodes/d3629a06c2906d9c28e4c0610988f42339.ts' for writing
[hls @ 0x557116013800] Opening '/config/cache/transcodes/d3629a06c2906d9c28e4c0610988f42340.ts' for writing
frame= 2965 fps=348 q=28.0 size=N/A time=00:01:59.99 bitrate=N/A speed=14.1x    
[hls @ 0x557116013800] Opening '/config/cache/transcodes/d3629a06c2906d9c28e4c0610988f42341.ts' for writing
[hls @ 0x557116013800] Opening '/config/cache/transcodes/d3629a06c2906d9c28e4c0610988f42342.ts' for writing
[hls @ 0x557116013800] Opening '/config/cache/transcodes/d3629a06c2906d9c28e4c0610988f42343.ts' for writing
frame= 3182 fps=353 q=28.0 size=N/A time=00:02:09.04 bitrate=N/A speed=14.3x    
[hls @ 0x557116013800] Opening '/config/cache/transcodes/d3629a06c2906d9c28e4c0610988f42344.ts' for writing
[hls @ 0x557116013800] Opening '/config/cache/transcodes/d3629a06c2906d9c28e4c0610988f42345.ts' for writing
[hls @ 0x557116013800] Opening '/config/cache/transcodes/d3629a06c2906d9c28e4c0610988f42346.ts' for writing
frame= 3412 fps=358 q=28.0 size=N/A time=00:02:18.63 bitrate=N/A speed=14.6x    
[hls @ 0x557116013800] Opening '/config/cache/transcodes/d3629a06c2906d9c28e4c0610988f42347.ts' for writing
[hls @ 0x557116013800] Opening '/config/cache/transcodes/d3629a06c2906d9c28e4c0610988f42348.ts' for writing
[hls @ 0x557116013800] Opening '/config/cache/transcodes/d3629a06c2906d9c28e4c0610988f42349.ts' for writing
[hls @ 0x557116013800] Opening '/config/cache/transcodes/d3629a06c2906d9c28e4c0610988f42350.ts' for writing
[hls @ 0x557116013800] Opening '/config/cache/transcodes/d3629a06c2906d9c28e4c0610988f42351.ts' for writing
frame= 3798 fps=361 q=28.0 size=N/A time=00:02:34.73 bitrate=N/A speed=14.7x    
[hls @ 0x557116013800] Opening '/config/cache/transcodes/d3629a06c2906d9c28e4c0610988f42352.ts' for writing
[hls @ 0x557116013800] Opening '/config/cache/transcodes/d3629a06c2906d9c28e4c0610988f42353.ts' for writing
[hls @ 0x557116013800] Opening '/config/cache/transcodes/d3629a06c2906d9c28e4c0610988f42354.ts' for writing
frame= 3995 fps=362 q=28.0 size=N/A time=00:02:42.95 bitrate=N/A speed=14.8x    
[hls @ 0x557116013800] Opening '/config/cache/transcodes/d3629a06c2906d9c28e4c0610988f42355.ts' for writing
[hls @ 0x557116013800] Opening '/config/cache/transcodes/d3629a06c2906d9c28e4c0610988f42356.ts' for writing
frame= 4101 fps=356 q=28.0 size=N/A time=00:02:47.37 bitrate=N/A speed=14.5x    
[hls @ 0x557116013800] Opening '/config/cache/transcodes/d3629a06c2906d9c28e4c0610988f42357.ts' for writing
frame= 4233 fps=352 q=28.0 size=N/A time=00:02:52.88 bitrate=N/A speed=14.4x    
[hls @ 0x557116013800] Opening '/config/cache/transcodes/d3629a06c2906d9c28e4c0610988f42358.ts' for writing
[hls @ 0x557116013800] Opening '/config/cache/transcodes/d3629a06c2906d9c28e4c0610988f42359.ts' for writing
[hls @ 0x557116013800] Opening '/config/cache/transcodes/d3629a06c2906d9c28e4c0610988f42360.ts' for writing
frame= 4424 fps=353 q=28.0 size=N/A time=00:03:00.84 bitrate=N/A speed=14.4x    
[hls @ 0x557116013800] Opening '/config/cache/transcodes/d3629a06c2906d9c28e4c0610988f42361.ts' for writing
[hls @ 0x557116013800] Opening '/config/cache/transcodes/d3629a06c2906d9c28e4c0610988f42362.ts' for writing
[hls @ 0x557116013800] Opening '/config/cache/transcodes/d3629a06c2906d9c28e4c0610988f42363.ts' for writing
frame= 4652 fps=357 q=28.0 size=N/A time=00:03:10.35 bitrate=N/A speed=14.6x    
[hls @ 0x557116013800] Opening '/config/cache/transcodes/d3629a06c2906d9c28e4c0610988f42364.ts' for writing
[hls @ 0x557116013800] Opening '/config/cache/transcodes/d3629a06c2906d9c28e4c0610988f42365.ts' for writing
[hls @ 0x557116013800] Opening '/config/cache/transcodes/d3629a06c2906d9c28e4c0610988f42366.ts' for writing
frame= 4844 fps=358 q=28.0 size=N/A time=00:03:18.40 bitrate=N/A speed=14.7x    
[hls @ 0x557116013800] Opening '/config/cache/transcodes/d3629a06c2906d9c28e4c0610988f42367.ts' for writing
[hls @ 0x557116013800] Opening '/config/cache/transcodes/d3629a06c2906d9c28e4c0610988f42368.ts' for writing
frame= 4983 fps=355 q=28.0 size=N/A time=00:03:24.20 bitrate=N/A speed=14.6x    
[hls @ 0x557116013800] Opening '/config/cache/transcodes/d3629a06c2906d9c28e4c0610988f42369.ts' for writing
[hls @ 0x557116013800] Opening '/config/cache/transcodes/d3629a06c2906d9c28e4c0610988f42370.ts' for writing
[hls @ 0x557116013800] Opening '/config/cache/transcodes/d3629a06c2906d9c28e4c0610988f42371.ts' for writing
frame= 5182 fps=357 q=28.0 size=N/A time=00:03:32.46 bitrate=N/A speed=14.6x    
[hls @ 0x557116013800] Opening '/config/cache/transcodes/d3629a06c2906d9c28e4c0610988f42372.ts' for writing
[hls @ 0x557116013800] Opening '/config/cache/transcodes/d3629a06c2906d9c28e4c0610988f42373.ts' for writing
[hls @ 0x557116013800] Opening '/config/cache/transcodes/d3629a06c2906d9c28e4c0610988f42374.ts' for writing
frame= 5411 fps=360 q=28.0 size=N/A time=00:03:42.01 bitrate=N/A speed=14.8x    
[hls @ 0x557116013800] Opening '/config/cache/transcodes/d3629a06c2906d9c28e4c0610988f42375.ts' for writing
[hls @ 0x557116013800] Opening '/config/cache/transcodes/d3629a06c2906d9c28e4c0610988f42376.ts' for writing
[hls @ 0x557116013800] Opening '/config/cache/transcodes/d3629a06c2906d9c28e4c0610988f42377.ts' for writing
frame= 5643 fps=363 q=28.0 size=N/A time=00:03:51.68 bitrate=N/A speed=14.9x    
[hls @ 0x557116013800] Opening '/config/cache/transcodes/d3629a06c2906d9c28e4c0610988f42378.ts' for writing
[hls @ 0x557116013800] Opening '/config/cache/transcodes/d3629a06c2906d9c28e4c0610988f42379.ts' for writing
[hls @ 0x557116013800] Opening '/config/cache/transcodes/d3629a06c2906d9c28e4c0610988f42380.ts' for writing
frame= 5868 fps=366 q=28.0 size=N/A time=00:04:01.07 bitrate=N/A speed=  15x    
[hls @ 0x557116013800] Opening '/config/cache/transcodes/d3629a06c2906d9c28e4c0610988f42381.ts' for writing
[hls @ 0x557116013800] Opening '/config/cache/transcodes/d3629a06c2906d9c28e4c0610988f42382.ts' for writing
[hls @ 0x557116013800] Opening '/config/cache/transcodes/d3629a06c2906d9c28e4c0610988f42383.ts' for writing
frame= 6075 fps=367 q=28.0 size=N/A time=00:04:09.70 bitrate=N/A speed=15.1x    
[hls @ 0x557116013800] Opening '/config/cache/transcodes/d3629a06c2906d9c28e4c0610988f42384.ts' for writing
[hls @ 0x557116013800] Opening '/config/cache/transcodes/d3629a06c2906d9c28e4c0610988f42385.ts' for writing
frame= 6249 fps=367 q=28.0 size=N/A time=00:04:16.96 bitrate=N/A speed=15.1x    
[hls @ 0x557116013800] Opening '/config/cache/transcodes/d3629a06c2906d9c28e4c0610988f42386.ts' for writing
[hls @ 0x557116013800] Opening '/config/cache/transcodes/d3629a06c2906d9c28e4c0610988f42387.ts' for writing
[hls @ 0x557116013800] Opening '/config/cache/transcodes/d3629a06c2906d9c28e4c0610988f42388.ts' for writing
[hls @ 0x557116013800] Opening '/config/cache/transcodes/d3629a06c2906d9c28e4c0610988f42389.ts' for writing
frame= 6483 fps=370 q=28.0 size=N/A time=00:04:26.72 bitrate=N/A speed=15.2x    
[hls @ 0x557116013800] Opening '/config/cache/transcodes/d3629a06c2906d9c28e4c0610988f42390.ts' for writing
[hls @ 0x557116013800] Opening '/config/cache/transcodes/d3629a06c2906d9c28e4c0610988f42391.ts' for writing
frame= 6636 fps=368 q=28.0 size=N/A time=00:04:33.10 bitrate=N/A speed=15.1x    
[hls @ 0x557116013800] Opening '/config/cache/transcodes/d3629a06c2906d9c28e4c0610988f42392.ts' for writing
frame= 6738 fps=363 q=28.0 size=N/A time=00:04:37.36 bitrate=N/A speed=  15x    
[hls @ 0x557116013800] Opening '/config/cache/transcodes/d3629a06c2906d9c28e4c0610988f42393.ts' for writing
[hls @ 0x557116013800] Opening '/config/cache/transcodes/d3629a06c2906d9c28e4c0610988f42394.ts' for writing
frame= 6840 fps=359 q=28.0 size=N/A time=00:04:41.61 bitrate=N/A speed=14.8x    
[hls @ 0x557116013800] Opening '/config/cache/transcodes/d3629a06c2906d9c28e4c0610988f42395.ts' for writing
[hls @ 0x557116013800] Opening '/config/cache/transcodes/d3629a06c2906d9c28e4c0610988f42396.ts' for writing
frame= 6996 fps=358 q=28.0 size=N/A time=00:04:48.12 bitrate=N/A speed=14.7x    
[hls @ 0x557116013800] Opening '/config/cache/transcodes/d3629a06c2906d9c28e4c0610988f42397.ts' for writing
[hls @ 0x557116013800] Opening '/config/cache/transcodes/d3629a06c2906d9c28e4c0610988f42398.ts' for writing
[hls @ 0x557116013800] Opening '/config/cache/transcodes/d3629a06c2906d9c28e4c0610988f42399.ts' for writing
frame= 7194 fps=359 q=28.0 size=N/A time=00:04:56.37 bitrate=N/A speed=14.8x    
[hls @ 0x557116013800] Opening '/config/cache/transcodes/d3629a06c2906d9c28e4c0610988f423100.ts' for writing
[hls @ 0x557116013800] Opening '/config/cache/transcodes/d3629a06c2906d9c28e4c0610988f423101.ts' for writing
frame= 7361 fps=358 q=28.0 size=N/A time=00:05:03.34 bitrate=N/A speed=14.8x    
[hls @ 0x557116013800] Opening '/config/cache/transcodes/d3629a06c2906d9c28e4c0610988f423102.ts' for writing
[hls @ 0x557116013800] Opening '/config/cache/transcodes/d3629a06c2906d9c28e4c0610988f423103.ts' for writing
[hls @ 0x557116013800] Opening '/config/cache/transcodes/d3629a06c2906d9c28e4c0610988f423104.ts' for writing
frame= 7571 fps=360 q=28.0 size=N/A time=00:05:12.10 bitrate=N/A speed=14.8x    
[hls @ 0x557116013800] Opening '/config/cache/transcodes/d3629a06c2906d9c28e4c0610988f423105.ts' for writing
[hls @ 0x557116013800] Opening '/config/cache/transcodes/d3629a06c2906d9c28e4c0610988f423106.ts' for writing
[hls @ 0x557116013800] Opening '/config/cache/transcodes/d3629a06c2906d9c28e4c0610988f423107.ts' for writing
frame= 7784 fps=361 q=28.0 size=N/A time=00:05:20.98 bitrate=N/A speed=14.9x    
[hls @ 0x557116013800] Opening '/config/cache/transcodes/d3629a06c2906d9c28e4c0610988f423108.ts' for writing
[hls @ 0x557116013800] Opening '/config/cache/transcodes/d3629a06c2906d9c28e4c0610988f423109.ts' for writing
[hls @ 0x557116013800] Opening '/config/cache/transcodes/d3629a06c2906d9c28e4c0610988f423110.ts' for writing
frame= 7997 fps=363 q=28.0 size=N/A time=00:05:29.87 bitrate=N/A speed=  15x    
[hls @ 0x557116013800] Opening '/config/cache/transcodes/d3629a06c2906d9c28e4c0610988f423111.ts' for writing
[hls @ 0x557116013800] Opening '/config/cache/transcodes/d3629a06c2906d9c28e4c0610988f423112.ts' for writing
[hls @ 0x557116013800] Opening '/config/cache/transcodes/d3629a06c2906d9c28e4c0610988f423113.ts' for writing
frame= 8213 fps=364 q=28.0 size=N/A time=00:05:38.88 bitrate=N/A speed=  15x    
[hls @ 0x557116013800] Opening '/config/cache/transcodes/d3629a06c2906d9c28e4c0610988f423114.ts' for writing
[hls @ 0x557116013800] Opening '/config/cache/transcodes/d3629a06c2906d9c28e4c0610988f423115.ts' for writing
[hls @ 0x557116013800] Opening '/config/cache/transcodes/d3629a06c2906d9c28e4c0610988f423116.ts' for writing
frame= 8428 fps=366 q=28.0 size=N/A time=00:05:47.84 bitrate=N/A speed=15.1x    
[hls @ 0x557116013800] Opening '/config/cache/transcodes/d3629a06c2906d9c28e4c0610988f423117.ts' for writing
[hls @ 0x557116013800] Opening '/config/cache/transcodes/d3629a06c2906d9c28e4c0610988f423118.ts' for writing
[hls @ 0x557116013800] Opening '/config/cache/transcodes/d3629a06c2906d9c28e4c0610988f423119.ts' for writing
frame= 8648 fps=367 q=28.0 size=N/A time=00:05:57.02 bitrate=N/A speed=15.2x    
[hls @ 0x557116013800] Opening '/config/cache/transcodes/d3629a06c2906d9c28e4c0610988f423120.ts' for writing
[hls @ 0x557116013800] Opening '/config/cache/transcodes/d3629a06c2906d9c28e4c0610988f423121.ts' for writing
frame= 8825 fps=367 q=28.0 size=N/A time=00:06:04.40 bitrate=N/A speed=15.1x    
[hls @ 0x557116013800] Opening '/config/cache/transcodes/d3629a06c2906d9c28e4c0610988f423122.ts' for writing
[hls @ 0x557116013800] Opening '/config/cache/transcodes/d3629a06c2906d9c28e4c0610988f423123.ts' for writing
[hls @ 0x557116013800] Opening '/config/cache/transcodes/d3629a06c2906d9c28e4c0610988f423124.ts' for writing
frame= 9036 fps=368 q=28.0 size=N/A time=00:06:13.20 bitrate=N/A speed=15.2x    
[hls @ 0x557116013800] Opening '/config/cache/transcodes/d3629a06c2906d9c28e4c0610988f423125.ts' for writing
[hls @ 0x557116013800] Opening '/config/cache/transcodes/d3629a06c2906d9c28e4c0610988f423126.ts' for writing
[hls @ 0x557116013800] Opening '/config/cache/transcodes/d3629a06c2906d9c28e4c0610988f423127.ts' for writing
frame= 9238 fps=369 q=28.0 size=N/A time=00:06:21.63 bitrate=N/A speed=15.2x    
[hls @ 0x557116013800] Opening '/config/cache/transcodes/d3629a06c2906d9c28e4c0610988f423128.ts' for writing
[hls @ 0x557116013800] Opening '/config/cache/transcodes/d3629a06c2906d9c28e4c0610988f423129.ts' for writing
[hls @ 0x557116013800] Opening '/config/cache/transcodes/d3629a06c2906d9c28e4c0610988f423130.ts' for writing
frame= 9450 fps=370 q=28.0 size=N/A time=00:06:30.51 bitrate=N/A speed=15.3x    
[hls @ 0x557116013800] Opening '/config/cache/transcodes/d3629a06c2906d9c28e4c0610988f423131.ts' for writing
[hls @ 0x557116013800] Opening '/config/cache/transcodes/d3629a06c2906d9c28e4c0610988f423132.ts' for writing
[hls @ 0x557116013800] Opening '/config/cache/transcodes/d3629a06c2906d9c28e4c0610988f423133.ts' for writing
frame= 9675 fps=371 q=28.0 size=N/A time=00:06:39.85 bitrate=N/A speed=15.3x    
[hls @ 0x557116013800] Opening '/config/cache/transcodes/d3629a06c2906d9c28e4c0610988f423134.ts' for writing
[hls @ 0x557116013800] Opening '/config/cache/transcodes/d3629a06c2906d9c28e4c0610988f423135.ts' for writing
[hls @ 0x557116013800] Opening '/config/cache/transcodes/d3629a06c2906d9c28e4c0610988f423136.ts' for writing
frame= 9903 fps=373 q=28.0 size=N/A time=00:06:49.36 bitrate=N/A speed=15.4x    
[hls @ 0x557116013800] Opening '/config/cache/transcodes/d3629a06c2906d9c28e4c0610988f423137.ts' for writing
[hls @ 0x557116013800] Opening '/config/cache/transcodes/d3629a06c2906d9c28e4c0610988f423138.ts' for writing
[hls @ 0x557116013800] Opening '/config/cache/transcodes/d3629a06c2906d9c28e4c0610988f423139.ts' for writing
frame=10120 fps=374 q=25.0 size=N/A time=00:06:58.41 bitrate=N/A speed=15.5x    
[hls @ 0x557116013800] Opening '/config/cache/transcodes/d3629a06c2906d9c28e4c0610988f423140.ts' for writing
[hls @ 0x557116013800] Opening '/config/cache/transcodes/d3629a06c2906d9c28e4c0610988f423141.ts' for writing
[hls @ 0x557116013800] Opening '/config/cache/transcodes/d3629a06c2906d9c28e4c0610988f423142.ts' for writing
frame=10329 fps=375 q=28.0 size=N/A time=00:07:07.13 bitrate=N/A speed=15.5x    
[hls @ 0x557116013800] Opening '/config/cache/transcodes/d3629a06c2906d9c28e4c0610988f423143.ts' for writing
[hls @ 0x557116013800] Opening '/config/cache/transcodes/d3629a06c2906d9c28e4c0610988f423144.ts' for writing
[hls @ 0x557116013800] Opening '/config/cache/transcodes/d3629a06c2906d9c28e4c0610988f423145.ts' for writing
frame=10556 fps=376 q=28.0 size=N/A time=00:07:16.60 bitrate=N/A speed=15.6x    
[hls @ 0x557116013800] Opening '/config/cache/transcodes/d3629a06c2906d9c28e4c0610988f423146.ts' for writing
[hls @ 0x557116013800] Opening '/config/cache/transcodes/d3629a06c2906d9c28e4c0610988f423147.ts' for writing
[hls @ 0x557116013800] Opening '/config/cache/transcodes/d3629a06c2906d9c28e4c0610988f423148.ts' for writing
frame=10785 fps=378 q=28.0 size=N/A time=00:07:26.15 bitrate=N/A speed=15.6x    
[hls @ 0x557116013800] Opening '/config/cache/transcodes/d3629a06c2906d9c28e4c0610988f423149.ts' for writing
[hls @ 0x557116013800] Opening '/config/cache/transcodes/d3629a06c2906d9c28e4c0610988f423150.ts' for writing
[hls @ 0x557116013800] Opening '/config/cache/transcodes/d3629a06c2906d9c28e4c0610988f423151.ts' for writing
frame=11002 fps=379 q=28.0 size=N/A time=00:07:35.20 bitrate=N/A speed=15.7x    
[hls @ 0x557116013800] Opening '/config/cache/transcodes/d3629a06c2906d9c28e4c0610988f423152.ts' for writing
[hls @ 0x557116013800] Opening '/config/cache/transcodes/d3629a06c2906d9c28e4c0610988f423153.ts' for writing
[hls @ 0x557116013800] Opening '/config/cache/transcodes/d3629a06c2906d9c28e4c0610988f423154.ts' for writing
[hls @ 0x557116013800] Opening '/config/cache/transcodes/d3629a06c2906d9c28e4c0610988f423155.ts' for writing
frame=11236 fps=380 q=28.0 size=N/A time=00:07:44.96 bitrate=N/A speed=15.7x    
[hls @ 0x557116013800] Opening '/config/cache/transcodes/d3629a06c2906d9c28e4c0610988f423156.ts' for writing
[hls @ 0x557116013800] Opening '/config/cache/transcodes/d3629a06c2906d9c28e4c0610988f423157.ts' for writing
[hls @ 0x557116013800] Opening '/config/cache/transcodes/d3629a06c2906d9c28e4c0610988f423158.ts' for writing
frame=11463 fps=381 q=28.0 size=N/A time=00:07:54.43 bitrate=N/A speed=15.8x    
[hls @ 0x557116013800] Opening '/config/cache/transcodes/d3629a06c2906d9c28e4c0610988f423159.ts' for writing
[hls @ 0x557116013800] Opening '/config/cache/transcodes/d3629a06c2906d9c28e4c0610988f423160.ts' for writing
[hls @ 0x557116013800] Opening '/config/cache/transcodes/d3629a06c2906d9c28e4c0610988f423161.ts' for writing
frame=11693 fps=383 q=28.0 size=N/A time=00:08:04.02 bitrate=N/A speed=15.8x    
[hls @ 0x557116013800] Opening '/config/cache/transcodes/d3629a06c2906d9c28e4c0610988f423162.ts' for writing
[hls @ 0x557116013800] Opening '/config/cache/transcodes/d3629a06c2906d9c28e4c0610988f423163.ts' for writing
frame=11855 fps=381 q=28.0 size=N/A time=00:08:10.78 bitrate=N/A speed=15.8x    
[hls @ 0x557116013800] Opening '/config/cache/transcodes/d3629a06c2906d9c28e4c0610988f423164.ts' for writing
[hls @ 0x557116013800] Opening '/config/cache/transcodes/d3629a06c2906d9c28e4c0610988f423165.ts' for writing
frame=11949 fps=378 q=28.0 size=N/A time=00:08:14.70 bitrate=N/A speed=15.7x    
[hls @ 0x557116013800] Opening '/config/cache/transcodes/d3629a06c2906d9c28e4c0610988f423166.ts' for writing
[hls @ 0x557116013800] Opening '/config/cache/transcodes/d3629a06c2906d9c28e4c0610988f423167.ts' for writing
frame=12095 fps=377 q=28.0 size=N/A time=00:08:20.79 bitrate=N/A speed=15.6x    
[hls @ 0x557116013800] Opening '/config/cache/transcodes/d3629a06c2906d9c28e4c0610988f423168.ts' for writing
[hls @ 0x557116013800] Opening '/config/cache/transcodes/d3629a06c2906d9c28e4c0610988f423169.ts' for writing
frame=12250 fps=376 q=28.0 size=N/A time=00:08:27.25 bitrate=N/A speed=15.6x    
[hls @ 0x557116013800] Opening '/config/cache/transcodes/d3629a06c2906d9c28e4c0610988f423170.ts' for writing
[hls @ 0x557116013800] Opening '/config/cache/transcodes/d3629a06c2906d9c28e4c0610988f423171.ts' for writing
frame=12373 fps=374 q=28.0 size=N/A time=00:08:32.38 bitrate=N/A speed=15.5x    
[hls @ 0x557116013800] Opening '/config/cache/transcodes/d3629a06c2906d9c28e4c0610988f423172.ts' for writing
frame=12466 fps=371 q=29.0 size=N/A time=00:08:36.26 bitrate=N/A speed=15.4x    
[hls @ 0x557116013800] Opening '/config/cache/transcodes/d3629a06c2906d9c28e4c0610988f423173.ts' for writing
frame=12576 fps=369 q=28.0 size=N/A time=00:08:40.85 bitrate=N/A speed=15.3x    
[hls @ 0x557116013800] Opening '/config/cache/transcodes/d3629a06c2906d9c28e4c0610988f423174.ts' for writing
[hls @ 0x557116013800] Opening '/config/cache/transcodes/d3629a06c2906d9c28e4c0610988f423175.ts' for writing
frame=12709 fps=367 q=28.0 size=N/A time=00:08:46.40 bitrate=N/A speed=15.2x    
[hls @ 0x557116013800] Opening '/config/cache/transcodes/d3629a06c2906d9c28e4c0610988f423176.ts' for writing
[hls @ 0x557116013800] Opening '/config/cache/transcodes/d3629a06c2906d9c28e4c0610988f423177.ts' for writing
frame=12805 fps=365 q=28.0 size=N/A time=00:08:50.40 bitrate=N/A speed=15.1x    
[hls @ 0x557116013800] Opening '/config/cache/transcodes/d3629a06c2906d9c28e4c0610988f423178.ts' for writing
frame=12936 fps=363 q=28.0 size=N/A time=00:08:55.86 bitrate=N/A speed=15.1x    
[hls @ 0x557116013800] Opening '/config/cache/transcodes/d3629a06c2906d9c28e4c0610988f423179.ts' for writing
[hls @ 0x557116013800] Opening '/config/cache/transcodes/d3629a06c2906d9c28e4c0610988f423180.ts' for writing
frame=13047 fps=361 q=28.0 size=N/A time=00:09:00.54 bitrate=N/A speed=  15x    
[hls @ 0x557116013800] Opening '/config/cache/transcodes/d3629a06c2906d9c28e4c0610988f423181.ts' for writing
frame=13162 fps=360 q=28.0 size=N/A time=00:09:05.29 bitrate=N/A speed=14.9x    
[hls @ 0x557116013800] Opening '/config/cache/transcodes/d3629a06c2906d9c28e4c0610988f423182.ts' for writing
[hls @ 0x557116013800] Opening '/config/cache/transcodes/d3629a06c2906d9c28e4c0610988f423183.ts' for writing
[hls @ 0x557116013800] Opening '/config/cache/transcodes/d3629a06c2906d9c28e4c0610988f423184.ts' for writing
frame=13309 fps=359 q=28.0 size=N/A time=00:09:11.42 bitrate=N/A speed=14.9x    
[hls @ 0x557116013800] Opening '/config/cache/transcodes/d3629a06c2906d9c28e4c0610988f423185.ts' for writing
[hls @ 0x557116013800] Opening '/config/cache/transcodes/d3629a06c2906d9c28e4c0610988f423186.ts' for writing
frame=13504 fps=359 q=28.0 size=N/A time=00:09:19.55 bitrate=N/A speed=14.9x    
[hls @ 0x557116013800] Opening '/config/cache/transcodes/d3629a06c2906d9c28e4c0610988f423187.ts' for writing
[hls @ 0x557116013800] Opening '/config/cache/transcodes/d3629a06c2906d9c28e4c0610988f423188.ts' for writing
[hls @ 0x557116013800] Opening '/config/cache/transcodes/d3629a06c2906d9c28e4c0610988f423189.ts' for writing
frame=13720 fps=360 q=28.0 size=N/A time=00:09:28.56 bitrate=N/A speed=14.9x    
[hls @ 0x557116013800] Opening '/config/cache/transcodes/d3629a06c2906d9c28e4c0610988f423190.ts' for writing
[hls @ 0x557116013800] Opening '/config/cache/transcodes/d3629a06c2906d9c28e4c0610988f423191.ts' for writing
[hls @ 0x557116013800] Opening '/config/cache/transcodes/d3629a06c2906d9c28e4c0610988f423192.ts' for writing
frame=13909 fps=360 q=28.0 size=N/A time=00:09:36.45 bitrate=N/A speed=14.9x    
[hls @ 0x557116013800] Opening '/config/cache/transcodes/d3629a06c2906d9c28e4c0610988f423193.ts' for writing
[hls @ 0x557116013800] Opening '/config/cache/transcodes/d3629a06c2906d9c28e4c0610988f423194.ts' for writing
[hls @ 0x557116013800] Opening '/config/cache/transcodes/d3629a06c2906d9c28e4c0610988f423195.ts' for writing
frame=14156 fps=362 q=28.0 size=N/A time=00:09:46.79 bitrate=N/A speed=  15x    
[hls @ 0x557116013800] Opening '/config/cache/transcodes/d3629a06c2906d9c28e4c0610988f423196.ts' for writing
[hls @ 0x557116013800] Opening '/config/cache/transcodes/d3629a06c2906d9c28e4c0610988f423197.ts' for writing
[hls @ 0x557116013800] Opening '/config/cache/transcodes/d3629a06c2906d9c28e4c0610988f423198.ts' for writing
[hls @ 0x557116013800] Opening '/config/cache/transcodes/d3629a06c2906d9c28e4c0610988f423199.ts' for writing
frame=14408 fps=364 q=28.0 size=N/A time=00:09:57.26 bitrate=N/A speed=15.1x    
[hls @ 0x557116013800] Opening '/config/cache/transcodes/d3629a06c2906d9c28e4c0610988f423200.ts' for writing
[hls @ 0x557116013800] Opening '/config/cache/transcodes/d3629a06c2906d9c28e4c0610988f423201.ts' for writing
[hls @ 0x557116013800] Opening '/config/cache/transcodes/d3629a06c2906d9c28e4c0610988f423202.ts' for writing
frame=14657 fps=366 q=28.0 size=N/A time=00:10:07.69 bitrate=N/A speed=15.2x    
[hls @ 0x557116013800] Opening '/config/cache/transcodes/d3629a06c2906d9c28e4c0610988f423203.ts' for writing
[hls @ 0x557116013800] Opening '/config/cache/transcodes/d3629a06c2906d9c28e4c0610988f423204.ts' for writing
[hls @ 0x557116013800] Opening '/config/cache/transcodes/d3629a06c2906d9c28e4c0610988f423205.ts' for writing
[hls @ 0x557116013800] Opening '/config/cache/transcodes/d3629a06c2906d9c28e4c0610988f423206.ts' for writing
frame=14895 fps=367 q=28.0 size=N/A time=00:10:17.57 bitrate=N/A speed=15.2x    
[hls @ 0x557116013800] Opening '/config/cache/transcodes/d3629a06c2906d9c28e4c0610988f423207.ts' for writing
[hls @ 0x557116013800] Opening '/config/cache/transcodes/d3629a06c2906d9c28e4c0610988f423208.ts' for writing
[hls @ 0x557116013800] Opening '/config/cache/transcodes/d3629a06c2906d9c28e4c0610988f423209.ts' for writing
frame=15119 fps=368 q=28.0 size=N/A time=00:10:26.91 bitrate=N/A speed=15.3x    
[hls @ 0x557116013800] Opening '/config/cache/transcodes/d3629a06c2906d9c28e4c0610988f423210.ts' for writing
[hls @ 0x557116013800] Opening '/config/cache/transcodes/d3629a06c2906d9c28e4c0610988f423211.ts' for writing
[hls @ 0x557116013800] Opening '/config/cache/transcodes/d3629a06c2906d9c28e4c0610988f423212.ts' for writing
frame=15345 fps=369 q=28.0 size=N/A time=00:10:36.34 bitrate=N/A speed=15.3x    
[hls @ 0x557116013800] Opening '/config/cache/transcodes/d3629a06c2906d9c28e4c0610988f423213.ts' for writing
[hls @ 0x557116013800] Opening '/config/cache/transcodes/d3629a06c2906d9c28e4c0610988f423214.ts' for writing
[hls @ 0x557116013800] Opening '/config/cache/transcodes/d3629a06c2906d9c28e4c0610988f423215.ts' for writing
frame=15569 fps=370 q=28.0 size=N/A time=00:10:45.68 bitrate=N/A speed=15.3x    
[hls @ 0x557116013800] Opening '/config/cache/transcodes/d3629a06c2906d9c28e4c0610988f423216.ts' for writing
[hls @ 0x557116013800] Opening '/config/cache/transcodes/d3629a06c2906d9c28e4c0610988f423217.ts' for writing
[hls @ 0x557116013800] Opening '/config/cache/transcodes/d3629a06c2906d9c28e4c0610988f423218.ts' for writing
frame=15800 fps=371 q=28.0 size=N/A time=00:10:55.32 bitrate=N/A speed=15.4x    
[hls @ 0x557116013800] Opening '/config/cache/transcodes/d3629a06c2906d9c28e4c0610988f423219.ts' for writing
[hls @ 0x557116013800] Opening '/config/cache/transcodes/d3629a06c2906d9c28e4c0610988f423220.ts' for writing
[hls @ 0x557116013800] Opening '/config/cache/transcodes/d3629a06c2906d9c28e4c0610988f423221.ts' for writing
frame=16003 fps=371 q=28.0 size=N/A time=00:11:03.78 bitrate=N/A speed=15.4x    
[hls @ 0x557116013800] Opening '/config/cache/transcodes/d3629a06c2906d9c28e4c0610988f423222.ts' for writing
[hls @ 0x557116013800] Opening '/config/cache/transcodes/d3629a06c2906d9c28e4c0610988f423223.ts' for writing
frame=16163 fps=371 q=28.0 size=N/A time=00:11:10.46 bitrate=N/A speed=15.4x    
[hls @ 0x557116013800] Opening '/config/cache/transcodes/d3629a06c2906d9c28e4c0610988f423224.ts' for writing
[hls @ 0x557116013800] Opening '/config/cache/transcodes/d3629a06c2906d9c28e4c0610988f423225.ts' for writing
[hls @ 0x557116013800] Opening '/config/cache/transcodes/d3629a06c2906d9c28e4c0610988f423226.ts' for writing
frame=16362 fps=371 q=28.0 size=N/A time=00:11:18.76 bitrate=N/A speed=15.4x    
[hls @ 0x557116013800] Opening '/config/cache/transcodes/d3629a06c2906d9c28e4c0610988f423227.ts' for writing
[hls @ 0x557116013800] Opening '/config/cache/transcodes/d3629a06c2906d9c28e4c0610988f423228.ts' for writing
[hls @ 0x557116013800] Opening '/config/cache/transcodes/d3629a06c2906d9c28e4c0610988f423229.ts' for writing
frame=16562 fps=371 q=28.0 size=N/A time=00:11:27.10 bitrate=N/A speed=15.4x    
[hls @ 0x557116013800] Opening '/config/cache/transcodes/d3629a06c2906d9c28e4c0610988f423230.ts' for writing
[hls @ 0x557116013800] Opening '/config/cache/transcodes/d3629a06c2906d9c28e4c0610988f423231.ts' for writing
[hls @ 0x557116013800] Opening '/config/cache/transcodes/d3629a06c2906d9c28e4c0610988f423232.ts' for writing
frame=16778 fps=372 q=28.0 size=N/A time=00:11:36.11 bitrate=N/A speed=15.4x    
[hls @ 0x557116013800] Opening '/config/cache/transcodes/d3629a06c2906d9c28e4c0610988f423233.ts' for writing
[hls @ 0x557116013800] Opening '/config/cache/transcodes/d3629a06c2906d9c28e4c0610988f423234.ts' for writing
[hls @ 0x557116013800] Opening '/config/cache/transcodes/d3629a06c2906d9c28e4c0610988f423235.ts' for writing
frame=16981 fps=372 q=28.0 size=N/A time=00:11:44.57 bitrate=N/A speed=15.4x    
[hls @ 0x557116013800] Opening '/config/cache/transcodes/d3629a06c2906d9c28e4c0610988f423236.ts' for writing
[hls @ 0x557116013800] Opening '/config/cache/transcodes/d3629a06c2906d9c28e4c0610988f423237.ts' for writing
[hls @ 0x557116013800] Opening '/config/cache/transcodes/d3629a06c2906d9c28e4c0610988f423238.ts' for writing
frame=17193 fps=373 q=28.0 size=N/A time=00:11:53.42 bitrate=N/A speed=15.5x    
[hls @ 0x557116013800] Opening '/config/cache/transcodes/d3629a06c2906d9c28e4c0610988f423239.ts' for writing
[hls @ 0x557116013800] Opening '/config/cache/transcodes/d3629a06c2906d9c28e4c0610988f423240.ts' for writing
[hls @ 0x557116013800] Opening '/config/cache/transcodes/d3629a06c2906d9c28e4c0610988f423241.ts' for writing
frame=17419 fps=374 q=28.0 size=N/A time=00:12:02.84 bitrate=N/A speed=15.5x    
[hls @ 0x557116013800] Opening '/config/cache/transcodes/d3629a06c2906d9c28e4c0610988f423242.ts' for writing
[hls @ 0x557116013800] Opening '/config/cache/transcodes/d3629a06c2906d9c28e4c0610988f423243.ts' for writing
[hls @ 0x557116013800] Opening '/config/cache/transcodes/d3629a06c2906d9c28e4c0610988f423244.ts' for writing
frame=17641 fps=374 q=28.0 size=N/A time=00:12:12.10 bitrate=N/A speed=15.5x    
[hls @ 0x557116013800] Opening '/config/cache/transcodes/d3629a06c2906d9c28e4c0610988f423245.ts' for writing
[hls @ 0x557116013800] Opening '/config/cache/transcodes/d3629a06c2906d9c28e4c0610988f423246.ts' for writing
frame=17831 fps=374 q=28.0 size=N/A time=00:12:20.03 bitrate=N/A speed=15.5x    
[hls @ 0x557116013800] Opening '/config/cache/transcodes/d3629a06c2906d9c28e4c0610988f423247.ts' for writing
[hls @ 0x557116013800] Opening '/config/cache/transcodes/d3629a06c2906d9c28e4c0610988f423248.ts' for writing
[hls @ 0x557116013800] Opening '/config/cache/transcodes/d3629a06c2906d9c28e4c0610988f423249.ts' for writing
frame=18029 fps=375 q=28.0 size=N/A time=00:12:28.28 bitrate=N/A speed=15.6x    
[hls @ 0x557116013800] Opening '/config/cache/transcodes/d3629a06c2906d9c28e4c0610988f423250.ts' for writing
[hls @ 0x557116013800] Opening '/config/cache/transcodes/d3629a06c2906d9c28e4c0610988f423251.ts' for writing
[hls @ 0x557116013800] Opening '/config/cache/transcodes/d3629a06c2906d9c28e4c0610988f423252.ts' for writing
frame=18242 fps=375 q=28.0 size=N/A time=00:12:37.17 bitrate=N/A speed=15.6x    
[hls @ 0x557116013800] Opening '/config/cache/transcodes/d3629a06c2906d9c28e4c0610988f423253.ts' for writing
[hls @ 0x557116013800] Opening '/config/cache/transcodes/d3629a06c2906d9c28e4c0610988f423254.ts' for writing
[hls @ 0x557116013800] Opening '/config/cache/transcodes/d3629a06c2906d9c28e4c0610988f423255.ts' for writing
frame=18464 fps=376 q=25.0 size=N/A time=00:12:46.43 bitrate=N/A speed=15.6x    
[hls @ 0x557116013800] Opening '/config/cache/transcodes/d3629a06c2906d9c28e4c0610988f423256.ts' for writing
[hls @ 0x557116013800] Opening '/config/cache/transcodes/d3629a06c2906d9c28e4c0610988f423257.ts' for writing
[hls @ 0x557116013800] Opening '/config/cache/transcodes/d3629a06c2906d9c28e4c0610988f423258.ts' for writing
frame=18673 fps=376 q=28.0 size=N/A time=00:12:55.23 bitrate=N/A speed=15.6x    
[hls @ 0x557116013800] Opening '/config/cache/transcodes/d3629a06c2906d9c28e4c0610988f423259.ts' for writing
[hls @ 0x557116013800] Opening '/config/cache/transcodes/d3629a06c2906d9c28e4c0610988f423260.ts' for writing
[hls @ 0x557116013800] Opening '/config/cache/transcodes/d3629a06c2906d9c28e4c0610988f423261.ts' for writing
frame=18892 fps=377 q=28.0 size=N/A time=00:13:04.28 bitrate=N/A speed=15.6x    
[hls @ 0x557116013800] Opening '/config/cache/transcodes/d3629a06c2906d9c28e4c0610988f423262.ts' for writing
[hls @ 0x557116013800] Opening '/config/cache/transcodes/d3629a06c2906d9c28e4c0610988f423263.ts' for writing
[hls @ 0x557116013800] Opening '/config/cache/transcodes/d3629a06c2906d9c28e4c0610988f423264.ts' for writing
frame=19118 fps=378 q=28.0 size=N/A time=00:13:13.70 bitrate=N/A speed=15.7x    
[hls @ 0x557116013800] Opening '/config/cache/transcodes/d3629a06c2906d9c28e4c0610988f423265.ts' for writing
[hls @ 0x557116013800] Opening '/config/cache/transcodes/d3629a06c2906d9c28e4c0610988f423266.ts' for writing
[hls @ 0x557116013800] Opening '/config/cache/transcodes/d3629a06c2906d9c28e4c0610988f423267.ts' for writing
frame=19343 fps=378 q=28.0 size=N/A time=00:13:23.09 bitrate=N/A speed=15.7x    
[hls @ 0x557116013800] Opening '/config/cache/transcodes/d3629a06c2906d9c28e4c0610988f423268.ts' for writing
[hls @ 0x557116013800] Opening '/config/cache/transcodes/d3629a06c2906d9c28e4c0610988f423269.ts' for writing
[hls @ 0x557116013800] Opening '/config/cache/transcodes/d3629a06c2906d9c28e4c0610988f423270.ts' for writing
[hls @ 0x557116013800] Opening '/config/cache/transcodes/d3629a06c2906d9c28e4c0610988f423271.ts' for writing
frame=19569 fps=379 q=28.0 size=N/A time=00:13:32.52 bitrate=N/A speed=15.7x    
[hls @ 0x557116013800] Opening '/config/cache/transcodes/d3629a06c2906d9c28e4c0610988f423272.ts' for writing
[hls @ 0x557116013800] Opening '/config/cache/transcodes/d3629a06c2906d9c28e4c0610988f423273.ts' for writing
[hls @ 0x557116013800] Opening '/config/cache/transcodes/d3629a06c2906d9c28e4c0610988f423274.ts' for writing
frame=19803 fps=380 q=28.0 size=N/A time=00:13:42.27 bitrate=N/A speed=15.8x    
[hls @ 0x557116013800] Opening '/config/cache/transcodes/d3629a06c2906d9c28e4c0610988f423275.ts' for writing
[hls @ 0x557116013800] Opening '/config/cache/transcodes/d3629a06c2906d9c28e4c0610988f423276.ts' for writing
[hls @ 0x557116013800] Opening '/config/cache/transcodes/d3629a06c2906d9c28e4c0610988f423277.ts' for writing
frame=20033 fps=381 q=28.0 size=N/A time=00:13:51.87 bitrate=N/A speed=15.8x    
[hls @ 0x557116013800] Opening '/config/cache/transcodes/d3629a06c2906d9c28e4c0610988f423278.ts' for writing
[hls @ 0x557116013800] Opening '/config/cache/transcodes/d3629a06c2906d9c28e4c0610988f423279.ts' for writing
[hls @ 0x557116013800] Opening '/config/cache/transcodes/d3629a06c2906d9c28e4c0610988f423280.ts' for writing
frame=20233 fps=381 q=28.0 size=N/A time=00:14:00.21 bitrate=N/A speed=15.8x    
[hls @ 0x557116013800] Opening '/config/cache/transcodes/d3629a06c2906d9c28e4c0610988f423281.ts' for writing
[hls @ 0x557116013800] Opening '/config/cache/transcodes/d3629a06c2906d9c28e4c0610988f423282.ts' for writing
[hls @ 0x557116013800] Opening '/config/cache/transcodes/d3629a06c2906d9c28e4c0610988f423283.ts' for writing
frame=20436 fps=381 q=28.0 size=N/A time=00:14:08.68 bitrate=N/A speed=15.8x    
[hls @ 0x557116013800] Opening '/config/cache/transcodes/d3629a06c2906d9c28e4c0610988f423284.ts' for writing
[hls @ 0x557116013800] Opening '/config/cache/transcodes/d3629a06c2906d9c28e4c0610988f423285.ts' for writing
frame=20637 fps=381 q=28.0 size=N/A time=00:14:17.06 bitrate=N/A speed=15.8x    
[hls @ 0x557116013800] Opening '/config/cache/transcodes/d3629a06c2906d9c28e4c0610988f423286.ts' for writing
[hls @ 0x557116013800] Opening '/config/cache/transcodes/d3629a06c2906d9c28e4c0610988f423287.ts' for writing
[hls @ 0x557116013800] Opening '/config/cache/transcodes/d3629a06c2906d9c28e4c0610988f423288.ts' for writing
frame=20825 fps=381 q=28.0 size=N/A time=00:14:24.90 bitrate=N/A speed=15.8x    
[hls @ 0x557116013800] Opening '/config/cache/transcodes/d3629a06c2906d9c28e4c0610988f423289.ts' for writing
[hls @ 0x557116013800] Opening '/config/cache/transcodes/d3629a06c2906d9c28e4c0610988f423290.ts' for writing
[hls @ 0x557116013800] Opening '/config/cache/transcodes/d3629a06c2906d9c28e4c0610988f423291.ts' for writing
frame=21029 fps=381 q=28.0 size=N/A time=00:14:33.41 bitrate=N/A speed=15.8x    
[hls @ 0x557116013800] Opening '/config/cache/transcodes/d3629a06c2906d9c28e4c0610988f423292.ts' for writing
[hls @ 0x557116013800] Opening '/config/cache/transcodes/d3629a06c2906d9c28e4c0610988f423293.ts' for writing
[hls @ 0x557116013800] Opening '/config/cache/transcodes/d3629a06c2906d9c28e4c0610988f423294.ts' for writing
frame=21228 fps=382 q=28.0 size=N/A time=00:14:41.71 bitrate=N/A speed=15.8x    
[hls @ 0x557116013800] Opening '/config/cache/transcodes/d3629a06c2906d9c28e4c0610988f423295.ts' for writing
[hls @ 0x557116013800] Opening '/config/cache/transcodes/d3629a06c2906d9c28e4c0610988f423296.ts' for writing
frame=21408 fps=381 q=28.0 size=N/A time=00:14:49.22 bitrate=N/A speed=15.8x    
[hls @ 0x557116013800] Opening '/config/cache/transcodes/d3629a06c2906d9c28e4c0610988f423297.ts' for writing
[hls @ 0x557116013800] Opening '/config/cache/transcodes/d3629a06c2906d9c28e4c0610988f423298.ts' for writing
[hls @ 0x557116013800] Opening '/config/cache/transcodes/d3629a06c2906d9c28e4c0610988f423299.ts' for writing
frame=21602 fps=381 q=28.0 size=N/A time=00:14:57.31 bitrate=N/A speed=15.8x    
[hls @ 0x557116013800] Opening '/config/cache/transcodes/d3629a06c2906d9c28e4c0610988f423300.ts' for writing
[hls @ 0x557116013800] Opening '/config/cache/transcodes/d3629a06c2906d9c28e4c0610988f423301.ts' for writing
[hls @ 0x557116013800] Opening '/config/cache/transcodes/d3629a06c2906d9c28e4c0610988f423302.ts' for writing
frame=21796 fps=381 q=28.0 size=N/A time=00:15:05.40 bitrate=N/A speed=15.8x    
[hls @ 0x557116013800] Opening '/config/cache/transcodes/d3629a06c2906d9c28e4c0610988f423303.ts' for writing
[hls @ 0x557116013800] Opening '/config/cache/transcodes/d3629a06c2906d9c28e4c0610988f423304.ts' for writing
frame=21983 fps=381 q=28.0 size=N/A time=00:15:13.20 bitrate=N/A speed=15.8x    
[hls @ 0x557116013800] Opening '/config/cache/transcodes/d3629a06c2906d9c28e4c0610988f423305.ts' for writing
[hls @ 0x557116013800] Opening '/config/cache/transcodes/d3629a06c2906d9c28e4c0610988f423306.ts' for writing
[hls @ 0x557116013800] Opening '/config/cache/transcodes/d3629a06c2906d9c28e4c0610988f423307.ts' for writing
frame=22163 fps=381 q=28.0 size=N/A time=00:15:20.71 bitrate=N/A speed=15.8x    
[hls @ 0x557116013800] Opening '/config/cache/transcodes/d3629a06c2906d9c28e4c0610988f423308.ts' for writing
[hls @ 0x557116013800] Opening '/config/cache/transcodes/d3629a06c2906d9c28e4c0610988f423309.ts' for writing
[hls @ 0x557116013800] Opening '/config/cache/transcodes/d3629a06c2906d9c28e4c0610988f423310.ts' for writing
frame=22386 fps=382 q=28.0 size=N/A time=00:15:30.01 bitrate=N/A speed=15.9x    
[hls @ 0x557116013800] Opening '/config/cache/transcodes/d3629a06c2906d9c28e4c0610988f423311.ts' for writing
[hls @ 0x557116013800] Opening '/config/cache/transcodes/d3629a06c2906d9c28e4c0610988f423312.ts' for writing
[hls @ 0x557116013800] Opening '/config/cache/transcodes/d3629a06c2906d9c28e4c0610988f423313.ts' for writing
frame=22611 fps=382 q=28.0 size=N/A time=00:15:39.39 bitrate=N/A speed=15.9x    
[hls @ 0x557116013800] Opening '/config/cache/transcodes/d3629a06c2906d9c28e4c0610988f423314.ts' for writing
[hls @ 0x557116013800] Opening '/config/cache/transcodes/d3629a06c2906d9c28e4c0610988f423315.ts' for writing
[hls @ 0x557116013800] Opening '/config/cache/transcodes/d3629a06c2906d9c28e4c0610988f423316.ts' for writing
frame=22836 fps=383 q=28.0 size=N/A time=00:15:48.78 bitrate=N/A speed=15.9x    
[hls @ 0x557116013800] Opening '/config/cache/transcodes/d3629a06c2906d9c28e4c0610988f423317.ts' for writing
[hls @ 0x557116013800] Opening '/config/cache/transcodes/d3629a06c2906d9c28e4c0610988f423318.ts' for writing
[hls @ 0x557116013800] Opening '/config/cache/transcodes/d3629a06c2906d9c28e4c0610988f423319.ts' for writing
frame=23054 fps=383 q=28.0 size=N/A time=00:15:57.87 bitrate=N/A speed=15.9x    
[hls @ 0x557116013800] Opening '/config/cache/transcodes/d3629a06c2906d9c28e4c0610988f423320.ts' for writing
[hls @ 0x557116013800] Opening '/config/cache/transcodes/d3629a06c2906d9c28e4c0610988f423321.ts' for writing
[hls @ 0x557116013800] Opening '/config/cache/transcodes/d3629a06c2906d9c28e4c0610988f423322.ts' for writing
frame=23275 fps=384 q=28.0 size=N/A time=00:16:07.09 bitrate=N/A speed=15.9x    
[hls @ 0x557116013800] Opening '/config/cache/transcodes/d3629a06c2906d9c28e4c0610988f423323.ts' for writing
[hls @ 0x557116013800] Opening '/config/cache/transcodes/d3629a06c2906d9c28e4c0610988f423324.ts' for writing
[hls @ 0x557116013800] Opening '/config/cache/transcodes/d3629a06c2906d9c28e4c0610988f423325.ts' for writing
frame=23485 fps=384 q=28.0 size=N/A time=00:16:15.84 bitrate=N/A speed=  16x    
[hls @ 0x557116013800] Opening '/config/cache/transcodes/d3629a06c2906d9c28e4c0610988f423326.ts' for writing
[hls @ 0x557116013800] Opening '/config/cache/transcodes/d3629a06c2906d9c28e4c0610988f423327.ts' for writing
[hls @ 0x557116013800] Opening '/config/cache/transcodes/d3629a06c2906d9c28e4c0610988f423328.ts' for writing
frame=23704 fps=385 q=28.0 size=N/A time=00:16:24.98 bitrate=N/A speed=  16x    
[hls @ 0x557116013800] Opening '/config/cache/transcodes/d3629a06c2906d9c28e4c0610988f423329.ts' for writing
[hls @ 0x557116013800] Opening '/config/cache/transcodes/d3629a06c2906d9c28e4c0610988f423330.ts' for writing
[hls @ 0x557116013800] Opening '/config/cache/transcodes/d3629a06c2906d9c28e4c0610988f423331.ts' for writing
frame=23910 fps=385 q=28.0 size=N/A time=00:16:33.57 bitrate=N/A speed=  16x    
[hls @ 0x557116013800] Opening '/config/cache/transcodes/d3629a06c2906d9c28e4c0610988f423332.ts' for writing
[hls @ 0x557116013800] Opening '/config/cache/transcodes/d3629a06c2906d9c28e4c0610988f423333.ts' for writing
[hls @ 0x557116013800] Opening '/config/cache/transcodes/d3629a06c2906d9c28e4c0610988f423334.ts' for writing
frame=24102 fps=385 q=28.0 size=N/A time=00:16:41.58 bitrate=N/A speed=  16x    
[hls @ 0x557116013800] Opening '/config/cache/transcodes/d3629a06c2906d9c28e4c0610988f423335.ts' for writing
[hls @ 0x557116013800] Opening '/config/cache/transcodes/d3629a06c2906d9c28e4c0610988f423336.ts' for writing
[hls @ 0x557116013800] Opening '/config/cache/transcodes/d3629a06c2906d9c28e4c0610988f423337.ts' for writing
frame=24314 fps=385 q=28.0 size=N/A time=00:16:50.42 bitrate=N/A speed=  16x    
[hls @ 0x557116013800] Opening '/config/cache/transcodes/d3629a06c2906d9c28e4c0610988f423338.ts' for writing
[hls @ 0x557116013800] Opening '/config/cache/transcodes/d3629a06c2906d9c28e4c0610988f423339.ts' for writing
frame=24519 fps=385 q=28.0 size=N/A time=00:16:58.97 bitrate=N/A speed=  16x    
[hls @ 0x557116013800] Opening '/config/cache/transcodes/d3629a06c2906d9c28e4c0610988f423340.ts' for writing
[hls @ 0x557116013800] Opening '/config/cache/transcodes/d3629a06c2906d9c28e4c0610988f423341.ts' for writing
[hls @ 0x557116013800] Opening '/config/cache/transcodes/d3629a06c2906d9c28e4c0610988f423342.ts' for writing
frame=24740 fps=386 q=28.0 size=N/A time=00:17:08.19 bitrate=N/A speed=  16x    
[hls @ 0x557116013800] Opening '/config/cache/transcodes/d3629a06c2906d9c28e4c0610988f423343.ts' for writing
[hls @ 0x557116013800] Opening '/config/cache/transcodes/d3629a06c2906d9c28e4c0610988f423344.ts' for writing
[hls @ 0x557116013800] Opening '/config/cache/transcodes/d3629a06c2906d9c28e4c0610988f423345.ts' for writing
frame=24949 fps=386 q=28.0 size=N/A time=00:17:16.91 bitrate=N/A speed=  16x    
[hls @ 0x557116013800] Opening '/config/cache/transcodes/d3629a06c2906d9c28e4c0610988f423346.ts' for writing
[hls @ 0x557116013800] Opening '/config/cache/transcodes/d3629a06c2906d9c28e4c0610988f423347.ts' for writing
[hls @ 0x557116013800] Opening '/config/cache/transcodes/d3629a06c2906d9c28e4c0610988f423348.ts' for writing
[hls @ 0x557116013800] Opening '/config/cache/transcodes/d3629a06c2906d9c28e4c0610988f423349.ts' for writing
frame=25176 fps=386 q=28.0 size=N/A time=00:17:26.37 bitrate=N/A speed=16.1x    
[hls @ 0x557116013800] Opening '/config/cache/transcodes/d3629a06c2906d9c28e4c0610988f423350.ts' for writing
[hls @ 0x557116013800] Opening '/config/cache/transcodes/d3629a06c2906d9c28e4c0610988f423351.ts' for writing
[hls @ 0x557116013800] Opening '/config/cache/transcodes/d3629a06c2906d9c28e4c0610988f423352.ts' for writing
frame=25404 fps=387 q=28.0 size=N/A time=00:17:35.88 bitrate=N/A speed=16.1x    
[hls @ 0x557116013800] Opening '/config/cache/transcodes/d3629a06c2906d9c28e4c0610988f423353.ts' for writing
[hls @ 0x557116013800] Opening '/config/cache/transcodes/d3629a06c2906d9c28e4c0610988f423354.ts' for writing
[hls @ 0x557116013800] Opening '/config/cache/transcodes/d3629a06c2906d9c28e4c0610988f423355.ts' for writing
frame=25624 fps=387 q=28.0 size=N/A time=00:17:45.06 bitrate=N/A speed=16.1x    
[hls @ 0x557116013800] Opening '/config/cache/transcodes/d3629a06c2906d9c28e4c0610988f423356.ts' for writing
[hls @ 0x557116013800] Opening '/config/cache/transcodes/d3629a06c2906d9c28e4c0610988f423357.ts' for writing
[hls @ 0x557116013800] Opening '/config/cache/transcodes/d3629a06c2906d9c28e4c0610988f423358.ts' for writing
frame=25833 fps=388 q=28.0 size=N/A time=00:17:53.78 bitrate=N/A speed=16.1x    
[hls @ 0x557116013800] Opening '/config/cache/transcodes/d3629a06c2906d9c28e4c0610988f423359.ts' for writing
[hls @ 0x557116013800] Opening '/config/cache/transcodes/d3629a06c2906d9c28e4c0610988f423360.ts' for writing
[hls @ 0x557116013800] Opening '/config/cache/transcodes/d3629a06c2906d9c28e4c0610988f423361.ts' for writing
frame=26043 fps=388 q=28.0 size=N/A time=00:18:02.53 bitrate=N/A speed=16.1x    
[hls @ 0x557116013800] Opening '/config/cache/transcodes/d3629a06c2906d9c28e4c0610988f423362.ts' for writing
[hls @ 0x557116013800] Opening '/config/cache/transcodes/d3629a06c2906d9c28e4c0610988f423363.ts' for writing
[hls @ 0x557116013800] Opening '/config/cache/transcodes/d3629a06c2906d9c28e4c0610988f423364.ts' for writing
frame=26258 fps=388 q=28.0 size=N/A time=00:18:11.50 bitrate=N/A speed=16.1x    
[hls @ 0x557116013800] Opening '/config/cache/transcodes/d3629a06c2906d9c28e4c0610988f423365.ts' for writing
[hls @ 0x557116013800] Opening '/config/cache/transcodes/d3629a06c2906d9c28e4c0610988f423366.ts' for writing
frame=26447 fps=388 q=28.0 size=N/A time=00:18:19.38 bitrate=N/A speed=16.1x    
[hls @ 0x557116013800] Opening '/config/cache/transcodes/d3629a06c2906d9c28e4c0610988f423367.ts' for writing
[hls @ 0x557116013800] Opening '/config/cache/transcodes/d3629a06c2906d9c28e4c0610988f423368.ts' for writing
frame=26600 fps=387 q=28.0 size=N/A time=00:18:25.77 bitrate=N/A speed=16.1x    
[hls @ 0x557116013800] Opening '/config/cache/transcodes/d3629a06c2906d9c28e4c0610988f423369.ts' for writing
[hls @ 0x557116013800] Opening '/config/cache/transcodes/d3629a06c2906d9c28e4c0610988f423370.ts' for writing
frame=26748 fps=387 q=28.0 size=N/A time=00:18:31.94 bitrate=N/A speed=16.1x    
[hls @ 0x557116013800] Opening '/config/cache/transcodes/d3629a06c2906d9c28e4c0610988f423371.ts' for writing
[hls @ 0x557116013800] Opening '/config/cache/transcodes/d3629a06c2906d9c28e4c0610988f423372.ts' for writing
[hls @ 0x557116013800] Opening '/config/cache/transcodes/d3629a06c2906d9c28e4c0610988f423373.ts' for writing
frame=26903 fps=386 q=28.0 size=N/A time=00:18:38.45 bitrate=N/A speed=16.1x    
[hls @ 0x557116013800] Opening '/config/cache/transcodes/d3629a06c2906d9c28e4c0610988f423374.ts' for writing
frame=27031 fps=385 q=28.0 size=N/A time=00:18:43.74 bitrate=N/A speed=  16x    
[hls @ 0x557116013800] Opening '/config/cache/transcodes/d3629a06c2906d9c28e4c0610988f423375.ts' for writing
[hls @ 0x557116013800] Opening '/config/cache/transcodes/d3629a06c2906d9c28e4c0610988f423376.ts' for writing
[hls @ 0x557116013800] Opening '/config/cache/transcodes/d3629a06c2906d9c28e4c0610988f423377.ts' for writing
frame=27191 fps=385 q=28.0 size=N/A time=00:18:50.42 bitrate=N/A speed=  16x    
[hls @ 0x557116013800] Opening '/config/cache/transcodes/d3629a06c2906d9c28e4c0610988f423378.ts' for writing
[hls @ 0x557116013800] Opening '/config/cache/transcodes/d3629a06c2906d9c28e4c0610988f423379.ts' for writing
frame=27361 fps=384 q=28.0 size=N/A time=00:18:57.51 bitrate=N/A speed=  16x    
[hls @ 0x557116013800] Opening '/config/cache/transcodes/d3629a06c2906d9c28e4c0610988f423380.ts' for writing
[hls @ 0x557116013800] Opening '/config/cache/transcodes/d3629a06c2906d9c28e4c0610988f423381.ts' for writing
frame=27526 fps=384 q=28.0 size=N/A time=00:19:04.39 bitrate=N/A speed=  16x    
[hls @ 0x557116013800] Opening '/config/cache/transcodes/d3629a06c2906d9c28e4c0610988f423382.ts' for writing
[hls @ 0x557116013800] Opening '/config/cache/transcodes/d3629a06c2906d9c28e4c0610988f423383.ts' for writing
[hls @ 0x557116013800] Opening '/config/cache/transcodes/d3629a06c2906d9c28e4c0610988f423384.ts' for writing
frame=27716 fps=384 q=28.0 size=N/A time=00:19:12.31 bitrate=N/A speed=  16x    
[hls @ 0x557116013800] Opening '/config/cache/transcodes/d3629a06c2906d9c28e4c0610988f423385.ts' for writing
[hls @ 0x557116013800] Opening '/config/cache/transcodes/d3629a06c2906d9c28e4c0610988f423386.ts' for writing
[hls @ 0x557116013800] Opening '/config/cache/transcodes/d3629a06c2906d9c28e4c0610988f423387.ts' for writing
frame=27916 fps=384 q=28.0 size=N/A time=00:19:20.65 bitrate=N/A speed=  16x    
[hls @ 0x557116013800] Opening '/config/cache/transcodes/d3629a06c2906d9c28e4c0610988f423388.ts' for writing
[hls @ 0x557116013800] Opening '/config/cache/transcodes/d3629a06c2906d9c28e4c0610988f423389.ts' for writing
frame=28094 fps=384 q=28.0 size=N/A time=00:19:28.08 bitrate=N/A speed=  16x    
[hls @ 0x557116013800] Opening '/config/cache/transcodes/d3629a06c2906d9c28e4c0610988f423390.ts' for writing
[hls @ 0x557116013800] Opening '/config/cache/transcodes/d3629a06c2906d9c28e4c0610988f423391.ts' for writing
[hls @ 0x557116013800] Opening '/config/cache/transcodes/d3629a06c2906d9c28e4c0610988f423392.ts' for writing
frame=28274 fps=384 q=28.0 size=N/A time=00:19:35.59 bitrate=N/A speed=  16x    
[hls @ 0x557116013800] Opening '/config/cache/transcodes/d3629a06c2906d9c28e4c0610988f423393.ts' for writing
frame=28411 fps=383 q=28.0 size=N/A time=00:19:41.30 bitrate=N/A speed=15.9x    
[hls @ 0x557116013800] Opening '/config/cache/transcodes/d3629a06c2906d9c28e4c0610988f423394.ts' for writing
[hls @ 0x557116013800] Opening '/config/cache/transcodes/d3629a06c2906d9c28e4c0610988f423395.ts' for writing
[hls @ 0x557116013800] Opening '/config/cache/transcodes/d3629a06c2906d9c28e4c0610988f423396.ts' for writing
frame=28562 fps=383 q=28.0 size=N/A time=00:19:47.60 bitrate=N/A speed=15.9x    
[hls @ 0x557116013800] Opening '/config/cache/transcodes/d3629a06c2906d9c28e4c0610988f423397.ts' for writing
[hls @ 0x557116013800] Opening '/config/cache/transcodes/d3629a06c2906d9c28e4c0610988f423398.ts' for writing
frame=28718 fps=382 q=28.0 size=N/A time=00:19:54.10 bitrate=N/A speed=15.9x    
[hls @ 0x557116013800] Opening '/config/cache/transcodes/d3629a06c2906d9c28e4c0610988f423399.ts' for writing
[hls @ 0x557116013800] Opening '/config/cache/transcodes/d3629a06c2906d9c28e4c0610988f423400.ts' for writing
frame=28857 fps=381 q=28.0 size=N/A time=00:19:59.90 bitrate=N/A speed=15.9x    
[hls @ 0x557116013800] Opening '/config/cache/transcodes/d3629a06c2906d9c28e4c0610988f423401.ts' for writing
[hls @ 0x557116013800] Opening '/config/cache/transcodes/d3629a06c2906d9c28e4c0610988f423402.ts' for writing
frame=29019 fps=381 q=28.0 size=N/A time=00:20:06.66 bitrate=N/A speed=15.8x    
[hls @ 0x557116013800] Opening '/config/cache/transcodes/d3629a06c2906d9c28e4c0610988f423403.ts' for writing
[hls @ 0x557116013800] Opening '/config/cache/transcodes/d3629a06c2906d9c28e4c0610988f423404.ts' for writing
frame=29142 fps=380 q=28.0 size=N/A time=00:20:11.79 bitrate=N/A speed=15.8x    
[hls @ 0x557116013800] Opening '/config/cache/transcodes/d3629a06c2906d9c28e4c0610988f423405.ts' for writing
frame=29273 fps=379 q=28.0 size=N/A time=00:20:17.25 bitrate=N/A speed=15.8x    
[hls @ 0x557116013800] Opening '/config/cache/transcodes/d3629a06c2906d9c28e4c0610988f423406.ts' for writing
[hls @ 0x557116013800] Opening '/config/cache/transcodes/d3629a06c2906d9c28e4c0610988f423407.ts' for writing
[hls @ 0x557116013800] Opening '/config/cache/transcodes/d3629a06c2906d9c28e4c0610988f423408.ts' for writing
frame=29424 fps=379 q=28.0 size=N/A time=00:20:23.55 bitrate=N/A speed=15.8x    
[hls @ 0x557116013800] Opening '/config/cache/transcodes/d3629a06c2906d9c28e4c0610988f423409.ts' for writing
frame=29556 fps=378 q=28.0 size=N/A time=00:20:29.06 bitrate=N/A speed=15.7x    
[hls @ 0x557116013800] Opening '/config/cache/transcodes/d3629a06c2906d9c28e4c0610988f423410.ts' for writing
[hls @ 0x557116013800] Opening '/config/cache/transcodes/d3629a06c2906d9c28e4c0610988f423411.ts' for writing
[hls @ 0x557116013800] Opening '/config/cache/transcodes/d3629a06c2906d9c28e4c0610988f423412.ts' for writing
frame=29718 fps=378 q=28.0 size=N/A time=00:20:35.81 bitrate=N/A speed=15.7x    
[hls @ 0x557116013800] Opening '/config/cache/transcodes/d3629a06c2906d9c28e4c0610988f423413.ts' for writing
[hls @ 0x557116013800] Opening '/config/cache/transcodes/d3629a06c2906d9c28e4c0610988f423414.ts' for writing
frame=29887 fps=377 q=28.0 size=N/A time=00:20:42.86 bitrate=N/A speed=15.7x    
[hls @ 0x557116013800] Opening '/config/cache/transcodes/d3629a06c2906d9c28e4c0610988f423415.ts' for writing
[hls @ 0x557116013800] Opening '/config/cache/transcodes/d3629a06c2906d9c28e4c0610988f423416.ts' for writing
frame=30058 fps=377 q=28.0 size=N/A time=00:20:49.99 bitrate=N/A speed=15.7x    
[hls @ 0x557116013800] Opening '/config/cache/transcodes/d3629a06c2906d9c28e4c0610988f423417.ts' for writing
[hls @ 0x557116013800] Opening '/config/cache/transcodes/d3629a06c2906d9c28e4c0610988f423418.ts' for writing
[hls @ 0x557116013800] Opening '/config/cache/transcodes/d3629a06c2906d9c28e4c0610988f423419.ts' for writing
frame=30228 fps=377 q=28.0 size=N/A time=00:20:57.08 bitrate=N/A speed=15.7x    
[hls @ 0x557116013800] Opening '/config/cache/transcodes/d3629a06c2906d9c28e4c0610988f423420.ts' for writing
[hls @ 0x557116013800] Opening '/config/cache/transcodes/d3629a06c2906d9c28e4c0610988f423421.ts' for writing
frame=30392 fps=377 q=28.0 size=N/A time=00:21:03.92 bitrate=N/A speed=15.7x    
[hls @ 0x557116013800] Opening '/config/cache/transcodes/d3629a06c2906d9c28e4c0610988f423422.ts' for writing
[hls @ 0x557116013800] Opening '/config/cache/transcodes/d3629a06c2906d9c28e4c0610988f423423.ts' for writing
[hls @ 0x557116013800] Opening '/config/cache/transcodes/d3629a06c2906d9c28e4c0610988f423424.ts' for writing
frame=30588 fps=377 q=28.0 size=N/A time=00:21:12.10 bitrate=N/A speed=15.7x    
[hls @ 0x557116013800] Opening '/config/cache/transcodes/d3629a06c2906d9c28e4c0610988f423425.ts' for writing
[hls @ 0x557116013800] Opening '/config/cache/transcodes/d3629a06c2906d9c28e4c0610988f423426.ts' for writing
frame=30779 fps=377 q=28.0 size=N/A time=00:21:20.07 bitrate=N/A speed=15.7x    
[hls @ 0x557116013800] Opening '/config/cache/transcodes/d3629a06c2906d9c28e4c0610988f423427.ts' for writing
[hls @ 0x557116013800] Opening '/config/cache/transcodes/d3629a06c2906d9c28e4c0610988f423428.ts' for writing
[hls @ 0x557116013800] Opening '/config/cache/transcodes/d3629a06c2906d9c28e4c0610988f423429.ts' for writing
frame=30949 fps=377 q=28.0 size=N/A time=00:21:27.16 bitrate=N/A speed=15.7x    
[hls @ 0x557116013800] Opening '/config/cache/transcodes/d3629a06c2906d9c28e4c0610988f423430.ts' for writing
[hls @ 0x557116013800] Opening '/config/cache/transcodes/d3629a06c2906d9c28e4c0610988f423431.ts' for writing
frame=31129 fps=376 q=28.0 size=N/A time=00:21:34.66 bitrate=N/A speed=15.7x    
[hls @ 0x557116013800] Opening '/config/cache/transcodes/d3629a06c2906d9c28e4c0610988f423432.ts' for writing
[hls @ 0x557116013800] Opening '/config/cache/transcodes/d3629a06c2906d9c28e4c0610988f423433.ts' for writing
[hls @ 0x557116013800] Opening '/config/cache/transcodes/d3629a06c2906d9c28e4c0610988f423434.ts' for writing
frame=31313 fps=376 q=28.0 size=N/A time=00:21:42.34 bitrate=N/A speed=15.7x    
[hls @ 0x557116013800] Opening '/config/cache/transcodes/d3629a06c2906d9c28e4c0610988f423435.ts' for writing
[hls @ 0x557116013800] Opening '/config/cache/transcodes/d3629a06c2906d9c28e4c0610988f423436.ts' for writing
[hls @ 0x557116013800] Opening '/config/cache/transcodes/d3629a06c2906d9c28e4c0610988f423437.ts' for writing
frame=31541 fps=377 q=28.0 size=N/A time=00:21:51.85 bitrate=N/A speed=15.7x    
[hls @ 0x557116013800] Opening '/config/cache/transcodes/d3629a06c2906d9c28e4c0610988f423438.ts' for writing
[hls @ 0x557116013800] Opening '/config/cache/transcodes/d3629a06c2906d9c28e4c0610988f423439.ts' for writing
[hls @ 0x557116013800] Opening '/config/cache/transcodes/d3629a06c2906d9c28e4c0610988f423440.ts' for writing
frame=31753 fps=377 q=28.0 size=N/A time=00:22:00.69 bitrate=N/A speed=15.7x    
[hls @ 0x557116013800] Opening '/config/cache/transcodes/d3629a06c2906d9c28e4c0610988f423441.ts' for writing
[hls @ 0x557116013800] Opening '/config/cache/transcodes/d3629a06c2906d9c28e4c0610988f423442.ts' for writing
[hls @ 0x557116013800] Opening '/config/cache/transcodes/d3629a06c2906d9c28e4c0610988f423443.ts' for writing
frame=31970 fps=377 q=28.0 size=N/A time=00:22:09.74 bitrate=N/A speed=15.7x    
[hls @ 0x557116013800] Opening '/config/cache/transcodes/d3629a06c2906d9c28e4c0610988f423444.ts' for writing
[hls @ 0x557116013800] Opening '/config/cache/transcodes/d3629a06c2906d9c28e4c0610988f423445.ts' for writing
[hls @ 0x557116013800] Opening '/config/cache/transcodes/d3629a06c2906d9c28e4c0610988f423446.ts' for writing
frame=32179 fps=378 q=28.0 size=N/A time=00:22:18.46 bitrate=N/A speed=15.7x    
[hls @ 0x557116013800] Opening '/config/cache/transcodes/d3629a06c2906d9c28e4c0610988f423447.ts' for writing
[hls @ 0x557116013800] Opening '/config/cache/transcodes/d3629a06c2906d9c28e4c0610988f423448.ts' for writing
[hls @ 0x557116013800] Opening '/config/cache/transcodes/d3629a06c2906d9c28e4c0610988f423449.ts' for writing
frame=32377 fps=378 q=28.0 size=N/A time=00:22:26.72 bitrate=N/A speed=15.7x    
[hls @ 0x557116013800] Opening '/config/cache/transcodes/d3629a06c2906d9c28e4c0610988f423450.ts' for writing
[hls @ 0x557116013800] Opening '/config/cache/transcodes/d3629a06c2906d9c28e4c0610988f423451.ts' for writing
frame=32584 fps=378 q=28.0 size=N/A time=00:22:35.35 bitrate=N/A speed=15.7x    
[hls @ 0x557116013800] Opening '/config/cache/transcodes/d3629a06c2906d9c28e4c0610988f423452.ts' for writing
[hls @ 0x557116013800] Opening '/config/cache/transcodes/d3629a06c2906d9c28e4c0610988f423453.ts' for writing
[hls @ 0x557116013800] Opening '/config/cache/transcodes/d3629a06c2906d9c28e4c0610988f423454.ts' for writing
[hls @ 0x557116013800] Opening '/config/cache/transcodes/d3629a06c2906d9c28e4c0610988f423455.ts' for writing
frame=32825 fps=379 q=28.0 size=N/A time=00:22:45.40 bitrate=N/A speed=15.7x    
[hls @ 0x557116013800] Opening '/config/cache/transcodes/d3629a06c2906d9c28e4c0610988f423456.ts' for writing
[hls @ 0x557116013800] Opening '/config/cache/transcodes/d3629a06c2906d9c28e4c0610988f423457.ts' for writing
[hls @ 0x557116013800] Opening '/config/cache/transcodes/d3629a06c2906d9c28e4c0610988f423458.ts' for writing
frame=33076 fps=379 q=28.0 size=N/A time=00:22:55.87 bitrate=N/A speed=15.8x    
[hls @ 0x557116013800] Opening '/config/cache/transcodes/d3629a06c2906d9c28e4c0610988f423459.ts' for writing
[hls @ 0x557116013800] Opening '/config/cache/transcodes/d3629a06c2906d9c28e4c0610988f423460.ts' for writing
[hls @ 0x557116013800] Opening '/config/cache/transcodes/d3629a06c2906d9c28e4c0610988f423461.ts' for writing
[hls @ 0x557116013800] Opening '/config/cache/transcodes/d3629a06c2906d9c28e4c0610988f423462.ts' for writing
frame=33326 fps=380 q=28.0 size=N/A time=00:23:06.30 bitrate=N/A speed=15.8x    
[hls @ 0x557116013800] Opening '/config/cache/transcodes/d3629a06c2906d9c28e4c0610988f423463.ts' for writing
[hls @ 0x557116013800] Opening '/config/cache/transcodes/d3629a06c2906d9c28e4c0610988f423464.ts' for writing
[hls @ 0x557116013800] Opening '/config/cache/transcodes/d3629a06c2906d9c28e4c0610988f423465.ts' for writing
frame=33577 fps=381 q=28.0 size=N/A time=00:23:16.77 bitrate=N/A speed=15.8x    
[hls @ 0x557116013800] Opening '/config/cache/transcodes/d3629a06c2906d9c28e4c0610988f423466.ts' for writing
[hls @ 0x557116013800] Opening '/config/cache/transcodes/d3629a06c2906d9c28e4c0610988f423467.ts' for writing
[hls @ 0x557116013800] Opening '/config/cache/transcodes/d3629a06c2906d9c28e4c0610988f423468.ts' for writing
[hls @ 0x557116013800] Opening '/config/cache/transcodes/d3629a06c2906d9c28e4c0610988f423469.ts' for writing
frame=33826 fps=381 q=28.0 size=N/A time=00:23:27.15 bitrate=N/A speed=15.9x    
[hls @ 0x557116013800] Opening '/config/cache/transcodes/d3629a06c2906d9c28e4c0610988f423470.ts' for writing
[hls @ 0x557116013800] Opening '/config/cache/transcodes/d3629a06c2906d9c28e4c0610988f423471.ts' for writing
[hls @ 0x557116013800] Opening '/config/cache/transcodes/d3629a06c2906d9c28e4c0610988f423472.ts' for writing
frame=34066 fps=382 q=28.0 size=N/A time=00:23:37.16 bitrate=N/A speed=15.9x    
[hls @ 0x557116013800] Opening '/config/cache/transcodes/d3629a06c2906d9c28e4c0610988f423473.ts' for writing
[hls @ 0x557116013800] Opening '/config/cache/transcodes/d3629a06c2906d9c28e4c0610988f423474.ts' for writing
[hls @ 0x557116013800] Opening '/config/cache/transcodes/d3629a06c2906d9c28e4c0610988f423475.ts' for writing
[hls @ 0x557116013800] Opening '/config/cache/transcodes/d3629a06c2906d9c28e4c0610988f423476.ts' for writing
frame=34313 fps=383 q=28.0 size=N/A time=00:23:47.46 bitrate=N/A speed=15.9x    
[hls @ 0x557116013800] Opening '/config/cache/transcodes/d3629a06c2906d9c28e4c0610988f423477.ts' for writing
[hls @ 0x557116013800] Opening '/config/cache/transcodes/d3629a06c2906d9c28e4c0610988f423478.ts' for writing
[hls @ 0x557116013800] Opening '/config/cache/transcodes/d3629a06c2906d9c28e4c0610988f423479.ts' for writing
frame=34557 fps=383 q=28.0 size=N/A time=00:23:57.64 bitrate=N/A speed=15.9x    
[hls @ 0x557116013800] Opening '/config/cache/transcodes/d3629a06c2906d9c28e4c0610988f423480.ts' for writing
[hls @ 0x557116013800] Opening '/config/cache/transcodes/d3629a06c2906d9c28e4c0610988f423481.ts' for writing
[hls @ 0x557116013800] Opening '/config/cache/transcodes/d3629a06c2906d9c28e4c0610988f423482.ts' for writing
frame=34791 fps=384 q=28.0 size=N/A time=00:24:07.40 bitrate=N/A speed=  16x    
[hls @ 0x557116013800] Opening '/config/cache/transcodes/d3629a06c2906d9c28e4c0610988f423483.ts' for writing
[hls @ 0x557116013800] Opening '/config/cache/transcodes/d3629a06c2906d9c28e4c0610988f423484.ts' for writing
frame=34916 fps=383 q=28.0 size=N/A time=00:24:12.61 bitrate=N/A speed=15.9x    
[hls @ 0x557116013800] Opening '/config/cache/transcodes/d3629a06c2906d9c28e4c0610988f423485.ts' for writing
[hls @ 0x557116013800] Opening '/config/cache/transcodes/d3629a06c2906d9c28e4c0610988f423486.ts' for writing
frame=35087 fps=383 q=28.0 size=N/A time=00:24:19.74 bitrate=N/A speed=15.9x    
[hls @ 0x557116013800] Opening '/config/cache/transcodes/d3629a06c2906d9c28e4c0610988f423487.ts' for writing
[hls @ 0x557116013800] Opening '/config/cache/transcodes/d3629a06c2906d9c28e4c0610988f423488.ts' for writing
frame=35241 fps=382 q=28.0 size=N/A time=00:24:26.17 bitrate=N/A speed=15.9x    
[hls @ 0x557116013800] Opening '/config/cache/transcodes/d3629a06c2906d9c28e4c0610988f423489.ts' for writing
[hls @ 0x557116013800] Opening '/config/cache/transcodes/d3629a06c2906d9c28e4c0610988f423490.ts' for writing
[hls @ 0x557116013800] Opening '/config/cache/transcodes/d3629a06c2906d9c28e4c0610988f423491.ts' for writing
frame=35402 fps=382 q=28.0 size=N/A time=00:24:32.88 bitrate=N/A speed=15.9x    
[hls @ 0x557116013800] Opening '/config/cache/transcodes/d3629a06c2906d9c28e4c0610988f423492.ts' for writing
[hls @ 0x557116013800] Opening '/config/cache/transcodes/d3629a06c2906d9c28e4c0610988f423493.ts' for writing
[hls @ 0x557116013800] Opening '/config/cache/transcodes/d3629a06c2906d9c28e4c0610988f423494.ts' for writing
[out#0/hls @ 0x5571160863c0] video:402413KiB audio:115638KiB subtitle:0KiB other streams:0KiB global headers:0KiB muxing overhead: unknown
frame=35559 fps=382 q=-1.0 Lsize=N/A time=00:24:39.09 bitrate=N/A speed=15.9x    
[libx264 @ 0x55710f37a100] frame I:495   Avg QP:17.94  size: 99021
[libx264 @ 0x55710f37a100] frame P:11045 Avg QP:21.46  size: 20186
[libx264 @ 0x55710f37a100] frame B:24019 Avg QP:24.64  size:  5833
[libx264 @ 0x55710f37a100] consecutive B-frames:  6.5%  8.0%  7.4% 78.2%
[libx264 @ 0x55710f37a100] mb I  I16..4: 33.2% 36.4% 30.4%
[libx264 @ 0x55710f37a100] mb P  I16..4: 11.3% 11.8%  3.2%  P16..4: 16.0%  4.5%  1.7%  0.0%  0.0%    skip:51.5%
[libx264 @ 0x55710f37a100] mb B  I16..4:  1.4%  2.8%  0.5%  B16..8:  7.3%  2.3%  0.3%  direct: 2.7%  skip:82.7%  L0:43.2% L1:47.3% BI: 9.5%
[libx264 @ 0x55710f37a100] 8x8 transform intra:47.8% inter:39.6%
[libx264 @ 0x55710f37a100] coded y,uvDC,uvAC intra: 54.0% 35.6% 11.4% inter: 4.3% 3.1% 0.1%
[libx264 @ 0x55710f37a100] i16 v,h,dc,p: 52% 20% 17% 10%
[libx264 @ 0x55710f37a100] i8 v,h,dc,ddl,ddr,vr,hd,vl,hu: 14% 14% 24%  9%  8%  7%  8%  7%  9%
[libx264 @ 0x55710f37a100] i4 v,h,dc,ddl,ddr,vr,hd,vl,hu: 19% 19% 13% 10%  8%  7%  8%  7% 10%
[libx264 @ 0x55710f37a100] i8c dc,h,v,p: 52% 21% 20%  7%
[libx264 @ 0x55710f37a100] Weighted P-Frames: Y:5.7% UV:4.0%
[libx264 @ 0x55710f37a100] kb/s:2222.74